<svg width="24" height="37" viewBox="0 0 24 37" fill="none" xmlns="http://www.w3.org/2000/svg">
<path fill-rule="evenodd" clip-rule="evenodd" d="M12 0C10.8954 0 10 0.895431 10 2V29.878L2.96552 22.5492C2.31023 21.8439 1.22144 21.8169 0.533622 22.4888C-0.154193 23.1607 -0.180566 24.277 0.474717 24.9823C0.474717 24.9823 10.7436 35.8652 10.7734 35.8949C11.483 36.5904 12.6081 36.5644 13.2864 35.8368L23.5233 24.9824C24.1797 24.2783 24.1552 23.1618 23.4685 22.4888C22.7817 21.8157 21.6929 21.8409 21.0365 22.545L14 29.8792V2C14 0.895431 13.1046 0 12 0Z" fill="black"/>
</svg>
