<svg width="36" height="36" viewBox="0 0 36 36" fill="none" xmlns="http://www.w3.org/2000/svg">
    <path fill-rule="evenodd" clip-rule="evenodd" d="M36 18.1206C36 8.11687 27.9536 0 18.0159 0H17.9991C8.06138 0 0 8.11687 0 18.1206C0 27.1649 6.59329 34.6409 15.1996 36V23.3553H10.5987V18.1206H15.1996L15.2033 14.1282C15.2033 9.58718 17.8755 7.0688 21.9857 7.0688C23.9557 7.0688 26.0005 7.44958 26.0005 7.44958V11.8794H23.746C21.5101 11.8794 20.7948 13.2893 20.7948 14.722L20.8004 18.1206H25.8002L25.0006 23.3553H20.8004V36C29.4067 34.6409 36 27.1649 36 18.1206" fill="white"/>
</svg>
