<svg width="50" height="50" viewBox="0 0 50 50" fill="none" xmlns="http://www.w3.org/2000/svg">
<path fill-rule="evenodd" clip-rule="evenodd" d="M25 50C38.8071 50 50 38.8071 50 25C50 11.1929 38.8071 0 25 0C11.1929 0 0 11.1929 0 25C0 38.8071 11.1929 50 25 50Z" fill="url(#paint0_linear)"/>
<path fill-rule="evenodd" clip-rule="evenodd" d="M25 50C38.8071 50 50 38.8071 50 25C50 11.1929 38.8071 0 25 0C11.1929 0 0 11.1929 0 25C0 38.8071 11.1929 50 25 50Z" fill="url(#paint1_radial)"/>
<mask id="mask0" mask-type="alpha" maskUnits="userSpaceOnUse" x="0" y="0" width="50" height="50">
<path fill-rule="evenodd" clip-rule="evenodd" d="M25 50C38.8071 50 50 38.8071 50 25C50 11.1929 38.8071 0 25 0C11.1929 0 0 11.1929 0 25C0 38.8071 11.1929 50 25 50Z" fill="white"/>
<path fill-rule="evenodd" clip-rule="evenodd" d="M25 50C38.8071 50 50 38.8071 50 25C50 11.1929 38.8071 0 25 0C11.1929 0 0 11.1929 0 25C0 38.8071 11.1929 50 25 50Z" stroke="white"/>
</mask>
<g mask="url(#mask0)">
<mask id="path-3-outside-1" maskUnits="userSpaceOnUse" x="15.0659" y="9" width="20" height="33" fill="black">
<rect fill="white" x="15.0659" y="9" width="20" height="33"/>
<path fill-rule="evenodd" clip-rule="evenodd" d="M22.7443 29.5474C22.7443 28.1652 22.6567 27.4149 22.8757 26.4961C23.0946 25.5797 23.3957 24.7904 23.7789 24.1286C24.1621 23.4701 24.6 22.9019 25.0927 22.4239C25.5853 21.9489 26.0451 21.4949 26.4721 21.0612C26.8991 20.63 27.2549 20.1812 27.5396 19.7142C27.8242 19.249 27.9665 18.6897 27.9665 18.035C27.9665 17.1864 27.7531 16.4969 27.3261 15.9646C26.8991 15.4295 26.1382 15.1295 25.0434 15.0666C24.693 15.0465 24.3208 15.0686 23.9267 15.1332C23.5325 15.1982 23.1384 15.3011 22.7443 15.4423C22.3501 15.5843 21.9724 15.7531 21.6111 15.9489C21.2498 16.1457 20.9269 16.3517 20.6422 16.5666C18.7494 17.5363 16.8929 13.9642 19 12.7952C21.1071 11.6262 20.79 11.7137 21.8739 11.3683C22.9578 11.0287 24.2661 10.925 25.7988 11.0528C27.8571 11.2245 29.4664 11.9049 30.6269 13.0817C31.7875 14.2419 32.3677 15.7226 32.3677 17.5363C32.3677 18.7376 32.2199 19.7285 31.9243 20.5113C31.6287 21.2973 31.2619 21.9668 30.824 22.5199C30.3861 23.0763 29.9044 23.5699 29.3789 24.0006C28.8533 24.4343 28.3716 24.901 27.9337 25.4005C27.4958 25.9029 27.1235 26.4863 26.817 27.1506C26.5104 27.8176 26.3572 27.9143 26.3572 29.6956C26.3572 31.4769 22.7443 31.4769 22.7443 29.5474ZM22.0545 37.6408C22.0545 36.8681 22.2814 36.2427 22.7351 35.7669C23.1888 35.2938 23.7869 35.0404 24.5293 35.0047C25.313 34.9669 25.9317 35.1576 26.3854 35.5747C26.8391 35.9891 27.0659 36.5688 27.0659 37.3158C27.0659 38.0629 26.8391 38.6773 26.3854 39.1613C25.9317 39.648 25.313 39.9245 24.5293 39.9886C23.7869 40.0493 23.1888 39.8681 22.7351 39.443C22.2814 39.015 22.0545 38.4136 22.0545 37.6408Z"/>
</mask>
<path fill-rule="evenodd" clip-rule="evenodd" d="M22.7443 29.5474C22.7443 28.1652 22.6567 27.4149 22.8757 26.4961C23.0946 25.5797 23.3957 24.7904 23.7789 24.1286C24.1621 23.4701 24.6 22.9019 25.0927 22.4239C25.5853 21.9489 26.0451 21.4949 26.4721 21.0612C26.8991 20.63 27.2549 20.1812 27.5396 19.7142C27.8242 19.249 27.9665 18.6897 27.9665 18.035C27.9665 17.1864 27.7531 16.4969 27.3261 15.9646C26.8991 15.4295 26.1382 15.1295 25.0434 15.0666C24.693 15.0465 24.3208 15.0686 23.9267 15.1332C23.5325 15.1982 23.1384 15.3011 22.7443 15.4423C22.3501 15.5843 21.9724 15.7531 21.6111 15.9489C21.2498 16.1457 20.9269 16.3517 20.6422 16.5666C18.7494 17.5363 16.8929 13.9642 19 12.7952C21.1071 11.6262 20.79 11.7137 21.8739 11.3683C22.9578 11.0287 24.2661 10.925 25.7988 11.0528C27.8571 11.2245 29.4664 11.9049 30.6269 13.0817C31.7875 14.2419 32.3677 15.7226 32.3677 17.5363C32.3677 18.7376 32.2199 19.7285 31.9243 20.5113C31.6287 21.2973 31.2619 21.9668 30.824 22.5199C30.3861 23.0763 29.9044 23.5699 29.3789 24.0006C28.8533 24.4343 28.3716 24.901 27.9337 25.4005C27.4958 25.9029 27.1235 26.4863 26.817 27.1506C26.5104 27.8176 26.3572 27.9143 26.3572 29.6956C26.3572 31.4769 22.7443 31.4769 22.7443 29.5474ZM22.0545 37.6408C22.0545 36.8681 22.2814 36.2427 22.7351 35.7669C23.1888 35.2938 23.7869 35.0404 24.5293 35.0047C25.313 34.9669 25.9317 35.1576 26.3854 35.5747C26.8391 35.9891 27.0659 36.5688 27.0659 37.3158C27.0659 38.0629 26.8391 38.6773 26.3854 39.1613C25.9317 39.648 25.313 39.9245 24.5293 39.9886C23.7869 40.0493 23.1888 39.8681 22.7351 39.443C22.2814 39.015 22.0545 38.4136 22.0545 37.6408Z" fill="white"/>
<path d="M22.8757 26.4961L20.9304 26.0313L20.9301 26.0325L22.8757 26.4961ZM23.7789 24.1286L22.0502 23.1228L22.0481 23.1264L23.7789 24.1286ZM25.0927 22.4239L23.7046 20.984L23.7 20.9884L25.0927 22.4239ZM26.4721 21.0612L25.051 19.654L25.047 19.658L26.4721 21.0612ZM27.5396 19.7142L25.8336 18.6704L25.8318 18.6732L27.5396 19.7142ZM27.3261 15.9646L25.7627 17.212L25.766 17.2161L27.3261 15.9646ZM25.0434 15.0666L25.158 13.0699L25.0434 15.0666ZM23.9267 15.1332L23.6033 13.1595L23.6012 13.1598L23.9267 15.1332ZM22.7443 15.4423L22.0698 13.5594L22.0664 13.5607L22.7443 15.4423ZM21.6111 15.9489L20.6581 14.1906L20.6545 14.1926L21.6111 15.9489ZM20.6422 16.5666L21.5542 18.3466L21.7088 18.2674L21.8475 18.1627L20.6422 16.5666ZM21.8739 11.3683L21.2759 9.45978L21.2667 9.46273L21.8739 11.3683ZM25.7988 11.0528L25.6326 13.0459L25.7988 11.0528ZM30.6269 13.0817L29.2029 14.486L29.2079 14.4911L29.2129 14.4961L30.6269 13.0817ZM31.9243 20.5113L30.0532 19.8048L30.0523 19.8073L31.9243 20.5113ZM30.824 22.5199L29.256 21.2784L29.2525 21.2829L30.824 22.5199ZM29.3789 24.0006L28.1111 22.4538L28.1058 22.4581L29.3789 24.0006ZM27.9337 25.4005L26.4298 24.0821L26.4261 24.0863L27.9337 25.4005ZM26.817 27.1506L25.001 26.3127L24.9997 26.3154L26.817 27.1506ZM22.7351 35.7669L21.2916 34.3826L21.2876 34.3867L22.7351 35.7669ZM24.5293 35.0047L24.6255 37.0024L24.5293 35.0047ZM26.3854 35.5747L25.0318 37.0471L25.0366 37.0515L26.3854 35.5747ZM26.3854 39.1613L24.9263 37.7934L24.9224 37.7976L26.3854 39.1613ZM24.5293 39.9886L24.6923 41.9819L24.5293 39.9886ZM22.7351 39.443L21.3628 40.8979L21.3675 40.9023L22.7351 39.443ZM24.7443 29.5474C24.7443 27.9118 24.6745 27.5752 24.8212 26.9597L20.9301 26.0325C20.6389 27.2547 20.7443 28.4186 20.7443 29.5474H24.7443ZM24.8209 26.9609C25.0048 26.191 25.2431 25.5911 25.5097 25.1308L22.0481 23.1264C21.5482 23.9897 21.1844 24.9684 20.9304 26.0313L24.8209 26.9609ZM25.5075 25.1345C25.8088 24.6167 26.1372 24.1971 26.4853 23.8593L23.7 20.9884C23.0628 21.6066 22.5153 22.3234 22.0502 23.1228L25.5075 25.1345ZM26.4807 23.8637C26.9841 23.3784 27.4565 22.9121 27.8972 22.4645L25.047 19.658C24.6338 20.0776 24.1865 20.5194 23.7046 20.984L26.4807 23.8637ZM27.8933 22.4685C28.4176 21.9389 28.8732 21.3689 29.2473 20.7552L25.8318 18.6732C25.6366 18.9935 25.3806 19.3211 25.051 19.654L27.8933 22.4685ZM29.2456 20.7581C29.7577 19.9211 29.9665 18.9842 29.9665 18.035H25.9665C25.9665 18.3952 25.8908 18.5769 25.8336 18.6704L29.2456 20.7581ZM29.9665 18.035C29.9665 16.8443 29.6614 15.6796 28.8862 14.7132L25.766 17.2161C25.8448 17.3143 25.9665 17.5284 25.9665 18.035H29.9665ZM28.8894 14.7172C27.9432 13.5314 26.4883 13.1463 25.158 13.0699L24.9288 17.0633C25.3314 17.0864 25.5737 17.1488 25.7026 17.1995C25.8203 17.2459 25.8064 17.2667 25.7627 17.212L28.8894 14.7172ZM25.158 13.0699C24.6433 13.0404 24.1233 13.0743 23.6033 13.1595L24.25 17.1068C24.5183 17.0629 24.7427 17.0527 24.9288 17.0633L25.158 13.0699ZM23.6012 13.1598C23.0831 13.2453 22.5723 13.3794 22.0698 13.5594L23.4187 17.3251C23.7045 17.2228 23.9819 17.1511 24.2522 17.1065L23.6012 13.1598ZM22.0664 13.5607C21.5796 13.736 21.1098 13.9458 20.6581 14.1906L22.5642 17.7073C22.8351 17.5604 23.1207 17.4325 23.4221 17.3239L22.0664 13.5607ZM20.6545 14.1926C20.2192 14.4297 19.8112 14.688 19.437 14.9706L21.8475 18.1627C22.0426 18.0153 22.2805 17.8618 22.5678 17.7053L20.6545 14.1926ZM19.7303 14.7866C19.7845 14.7589 19.8827 14.7281 20.0046 14.7319C20.1195 14.7355 20.1977 14.7679 20.2305 14.7853C20.2597 14.8009 20.2521 14.8034 20.2222 14.7702C20.1931 14.7378 20.1576 14.6876 20.1267 14.6227C20.0959 14.5581 20.078 14.4965 20.0703 14.4476C20.0626 14.3986 20.0678 14.38 20.0658 14.3901C20.0631 14.4043 20.0519 14.4438 20.0196 14.4893C19.9856 14.5373 19.9567 14.5516 19.9703 14.5441L18.0297 11.0464C16.9588 11.6405 16.3357 12.601 16.1372 13.638C15.9502 14.6147 16.149 15.5737 16.5156 16.3432C16.8798 17.1077 17.4934 17.8598 18.3511 18.3163C19.2721 18.8065 20.4369 18.919 21.5542 18.3466L19.7303 14.7866ZM19.9703 14.5441C21.1183 13.9072 21.4444 13.704 21.7488 13.5445C21.8989 13.4659 21.942 13.4457 22.4811 13.2739L21.2667 9.46273C20.7219 9.63633 20.3816 9.7451 19.8926 10.0013C19.5577 10.1767 18.9888 10.5142 18.0297 11.0464L19.9703 14.5441ZM22.4719 13.2768C23.2364 13.0373 24.2693 12.9322 25.6326 13.0459L25.965 9.05974C24.2628 8.9178 22.6791 9.02017 21.2759 9.4598L22.4719 13.2768ZM25.6326 13.0459C27.3323 13.1876 28.4524 13.725 29.2029 14.486L32.051 11.6774C30.4805 10.0848 28.3818 9.26127 25.965 9.05974L25.6326 13.0459ZM29.2129 14.4961C29.9584 15.2414 30.3677 16.194 30.3677 17.5363H34.3677C34.3677 15.2512 33.6165 13.2424 32.041 11.6673L29.2129 14.4961ZM30.3677 17.5363C30.3677 18.5923 30.2352 19.3229 30.0532 19.8048L33.7954 21.2179C34.2046 20.1341 34.3677 18.8829 34.3677 17.5363H30.3677ZM30.0523 19.8073C29.8162 20.4352 29.5437 20.9151 29.256 21.2784L32.392 23.7614C32.9802 23.0185 33.4412 22.1594 33.7963 21.2154L30.0523 19.8073ZM29.2525 21.2829C28.9004 21.7302 28.5197 22.1189 28.1111 22.4538L30.6466 25.5474C31.2891 25.0209 31.8718 24.4224 32.3956 23.7569L29.2525 21.2829ZM28.1058 22.4581C27.4995 22.9584 26.9403 23.4998 26.4298 24.0821L29.4376 26.7189C29.803 26.3022 30.2072 25.9102 30.6519 25.5432L28.1058 22.4581ZM26.4261 24.0863C25.8517 24.7452 25.3794 25.4925 25.001 26.3127L28.633 27.9886C28.8676 27.48 29.1399 27.0605 29.4413 26.7147L26.4261 24.0863ZM24.9997 26.3154C24.9245 26.4791 24.6611 26.9621 24.5239 27.5531C24.3916 28.1231 24.3572 28.7905 24.3572 29.6956H28.3572C28.3572 28.8195 28.3994 28.5478 28.4203 28.4574C28.4365 28.388 28.4029 28.4892 28.6342 27.9859L24.9997 26.3154ZM24.3572 29.6956C24.3572 29.5654 24.3942 29.4072 24.4814 29.2602C24.5629 29.1225 24.6556 29.0489 24.702 29.0188C24.7459 28.9902 24.7595 28.9923 24.7278 29.0002C24.698 29.0077 24.65 29.0146 24.5917 29.0134C24.5335 29.0122 24.4863 29.0034 24.4571 28.9947C24.4266 28.9857 24.4381 28.9837 24.4762 29.0111C24.5176 29.0409 24.5923 29.1076 24.6554 29.2233C24.722 29.3454 24.7443 29.4651 24.7443 29.5474H20.7443C20.7443 30.7479 21.3434 31.6853 22.1414 32.259C22.8799 32.7899 23.7505 32.997 24.5097 33.0126C25.2668 33.0281 26.1362 32.8577 26.8833 32.3717C27.6893 31.8473 28.3572 30.9286 28.3572 29.6956H24.3572ZM24.0545 37.6408C24.0545 37.2848 24.1454 37.1861 24.1826 37.1471L21.2876 34.3867C20.4174 35.2994 20.0545 36.4513 20.0545 37.6408H24.0545ZM24.1786 37.1512C24.2287 37.099 24.3179 37.0172 24.6255 37.0024L24.4331 33.007C23.2558 33.0637 22.1489 33.4887 21.2916 34.3826L24.1786 37.1512ZM24.6255 37.0024C24.8331 36.9924 24.9462 37.0164 24.9934 37.0309C25.0163 37.0379 25.0264 37.0435 25.0283 37.0446C25.0299 37.0455 25.0303 37.0457 25.0318 37.0471L27.7389 34.1024C26.7928 33.2326 25.5999 32.9508 24.4331 33.007L24.6255 37.0024ZM25.0366 37.0515C25.0388 37.0535 25.0363 37.0514 25.0327 37.0462C25.0292 37.041 25.0298 37.0404 25.0331 37.0488C25.0397 37.0657 25.0659 37.1432 25.0659 37.3158H29.0659C29.0659 36.1371 28.69 34.9709 27.7341 34.0979L25.0366 37.0515ZM25.0659 37.3158C25.0659 37.6232 24.9883 37.7272 24.9263 37.7934L27.8444 40.5292C28.6898 39.6275 29.0659 38.5026 29.0659 37.3158H25.0659ZM24.9224 37.7976C24.8674 37.8566 24.7468 37.9641 24.3663 37.9952L24.6923 41.9819C25.8791 41.8849 26.9959 41.4395 27.8483 40.525L24.9224 37.7976ZM24.3663 37.9952C24.1984 38.009 24.1216 37.9893 24.1053 37.9843C24.0971 37.9818 24.0972 37.9811 24.1017 37.9836C24.1061 37.9862 24.1068 37.9875 24.1027 37.9836L21.3675 40.9023C22.3159 41.791 23.511 42.0785 24.6923 41.9819L24.3663 37.9952ZM24.1074 37.9881C24.1056 37.9864 24.1051 37.9856 24.1052 37.9858C24.1054 37.9861 24.1056 37.9863 24.1056 37.9863C24.1055 37.9863 24.1047 37.985 24.1032 37.982C24.1017 37.979 24.0991 37.9735 24.0958 37.9648C24.083 37.9309 24.0545 37.8337 24.0545 37.6408H20.0545C20.0545 38.8226 20.4159 40.0047 21.3628 40.8979L24.1074 37.9881Z" fill="url(#paint2_linear)" mask="url(#path-3-outside-1)"/>
</g>
<defs>
<linearGradient id="paint0_linear" x1="0.00013709" y1="0.000271267" x2="0.00013709" y2="50" gradientUnits="userSpaceOnUse">
<stop stop-color="#00BDFF"/>
<stop offset="0.96805" stop-color="#0072FF"/>
</linearGradient>
<radialGradient id="paint1_radial" cx="0" cy="0" r="1" gradientUnits="userSpaceOnUse" gradientTransform="translate(6.37065 -6.40968) rotate(70.3337) scale(26.5486 23.4995)">
<stop stop-color="#7EB8FF" stop-opacity="0.5"/>
<stop offset="1" stop-color="#0072FF" stop-opacity="0.01"/>
</radialGradient>
<linearGradient id="paint2_linear" x1="30.2553" y1="18.25" x2="21.3633" y2="20.8408" gradientUnits="userSpaceOnUse">
<stop stop-color="#0076FE"/>
<stop offset="1" stop-color="white" stop-opacity="0.01"/>
</linearGradient>
</defs>
</svg>
