<svg width="50" height="50" viewBox="0 0 50 50" fill="none" xmlns="http://www.w3.org/2000/svg">
<path fill-rule="evenodd" clip-rule="evenodd" d="M25 50C38.8071 50 50 38.8071 50 25C50 11.1929 38.8071 0 25 0C11.1929 0 0 11.1929 0 25C0 38.8071 11.1929 50 25 50Z" fill="url(#paint0_linear)"/>
<path fill-rule="evenodd" clip-rule="evenodd" d="M25 50C38.8071 50 50 38.8071 50 25C50 11.1929 38.8071 0 25 0C11.1929 0 0 11.1929 0 25C0 38.8071 11.1929 50 25 50Z" fill="url(#paint1_radial)"/>
<mask id="mask0" mask-type="alpha" maskUnits="userSpaceOnUse" x="0" y="0" width="50" height="50">
<path fill-rule="evenodd" clip-rule="evenodd" d="M25 50C38.8071 50 50 38.8071 50 25C50 11.1929 38.8071 0 25 0C11.1929 0 0 11.1929 0 25C0 38.8071 11.1929 50 25 50Z" fill="white"/>
<path fill-rule="evenodd" clip-rule="evenodd" d="M25 50C38.8071 50 50 38.8071 50 25C50 11.1929 38.8071 0 25 0C11.1929 0 0 11.1929 0 25C0 38.8071 11.1929 50 25 50Z" stroke="white"/>
</mask>
<g mask="url(#mask0)">
<mask id="path-3-outside-1" maskUnits="userSpaceOnUse" x="8" y="20" width="34" height="10" fill="black">
<rect fill="white" x="8" y="20" width="34" height="10"/>
<path fill-rule="evenodd" clip-rule="evenodd" d="M13 28C14.6569 28 16 26.6569 16 25C16 23.3431 14.6569 22 13 22C11.3431 22 10 23.3431 10 25C10 26.6569 11.3431 28 13 28ZM25 28C26.6569 28 28 26.6569 28 25C28 23.3431 26.6569 22 25 22C23.3431 22 22 23.3431 22 25C22 26.6569 23.3431 28 25 28ZM40 25C40 26.6569 38.6569 28 37 28C35.3431 28 34 26.6569 34 25C34 23.3431 35.3431 22 37 22C38.6569 22 40 23.3431 40 25Z"/>
</mask>
<path fill-rule="evenodd" clip-rule="evenodd" d="M13 28C14.6569 28 16 26.6569 16 25C16 23.3431 14.6569 22 13 22C11.3431 22 10 23.3431 10 25C10 26.6569 11.3431 28 13 28ZM25 28C26.6569 28 28 26.6569 28 25C28 23.3431 26.6569 22 25 22C23.3431 22 22 23.3431 22 25C22 26.6569 23.3431 28 25 28ZM40 25C40 26.6569 38.6569 28 37 28C35.3431 28 34 26.6569 34 25C34 23.3431 35.3431 22 37 22C38.6569 22 40 23.3431 40 25Z" fill="white"/>
<path d="M14 25C14 25.5523 13.5523 26 13 26V30C15.7614 30 18 27.7614 18 25H14ZM13 24C13.5523 24 14 24.4477 14 25H18C18 22.2386 15.7614 20 13 20V24ZM12 25C12 24.4477 12.4477 24 13 24V20C10.2386 20 8 22.2386 8 25H12ZM13 26C12.4477 26 12 25.5523 12 25H8C8 27.7614 10.2386 30 13 30V26ZM26 25C26 25.5523 25.5523 26 25 26V30C27.7614 30 30 27.7614 30 25H26ZM25 24C25.5523 24 26 24.4477 26 25H30C30 22.2386 27.7614 20 25 20V24ZM24 25C24 24.4477 24.4477 24 25 24V20C22.2386 20 20 22.2386 20 25H24ZM25 26C24.4477 26 24 25.5523 24 25H20C20 27.7614 22.2386 30 25 30V26ZM37 30C39.7614 30 42 27.7614 42 25H38C38 25.5523 37.5523 26 37 26V30ZM32 25C32 27.7614 34.2386 30 37 30V26C36.4477 26 36 25.5523 36 25H32ZM37 20C34.2386 20 32 22.2386 32 25H36C36 24.4477 36.4477 24 37 24V20ZM42 25C42 22.2386 39.7614 20 37 20V24C37.5523 24 38 24.4477 38 25H42Z" fill="url(#paint2_linear)" mask="url(#path-3-outside-1)"/>
</g>
<defs>
<linearGradient id="paint0_linear" x1="50.93" y1="71.0831" x2="72.4104" y2="8.69587" gradientUnits="userSpaceOnUse">
<stop stop-color="#0C1723"/>
<stop offset="1" stop-color="#18222E"/>
</linearGradient>
<radialGradient id="paint1_radial" cx="0" cy="0" r="1" gradientUnits="userSpaceOnUse" gradientTransform="translate(46.3885 13.0068) rotate(20.0037) scale(32.6094 25.3593)">
<stop stop-color="#5B616D" stop-opacity="0.558764"/>
<stop offset="1" stop-color="#9297A2" stop-opacity="0.01"/>
</radialGradient>
<linearGradient id="paint2_linear" x1="16.4069" y1="13.3473" x2="15.8775" y2="21.54" gradientUnits="userSpaceOnUse">
<stop stop-color="#0F1A26"/>
<stop offset="1" stop-color="white" stop-opacity="0.01"/>
</linearGradient>
</defs>
</svg>
