<svg width="36" height="36" viewBox="0 0 36 36" fill="none" xmlns="http://www.w3.org/2000/svg">
    <path fill-rule="evenodd" clip-rule="evenodd" d="M10.5797 0.108749C12.4996 0.0197726 13.1125 0 18 0C22.8875 0 23.5004 0.0197726 25.4203 0.108749C27.3361 0.195749 28.645 0.500247 29.7898 0.945131C30.9741 1.40583 31.9785 2.02076 32.9789 3.02126C33.9793 4.02175 34.5942 5.0262 35.0549 6.2086C35.4998 7.35344 35.8043 8.66238 35.8913 10.5783C35.9783 12.4983 36 13.1112 36 17.999C36 22.8888 35.9783 23.5017 35.8913 25.4217C35.8043 27.3376 35.4998 28.6466 35.0549 29.7914C34.5942 30.9738 33.9793 31.9783 32.9789 32.9787C31.9785 33.9792 30.9741 34.5961 29.7898 35.0549C28.645 35.4998 27.3361 35.8043 25.4203 35.8913C23.5004 35.9802 22.8875 36 18 36C13.1125 36 12.4996 35.9802 10.5797 35.8913C8.66388 35.8043 7.35501 35.4998 6.21024 35.0549C5.02592 34.5961 4.02153 33.9792 3.02109 32.9787C2.02065 31.9783 1.40576 30.9738 0.945079 29.7914C0.50022 28.6466 0.195738 27.3376 0.108743 25.4217C0.0217487 23.5017 0 22.8888 0 17.999C0 13.1112 0.0217487 12.4983 0.108743 10.5783C0.195738 8.66238 0.50022 7.35344 0.945079 6.2086C1.40576 5.0262 2.02065 4.02175 3.02109 3.02126C4.02153 2.02076 5.02592 1.40583 6.21024 0.945131C7.35501 0.500247 8.66388 0.195749 10.5797 0.108749ZM25.2739 3.3475C23.3759 3.2605 22.8065 3.24271 18 3.24271C13.1935 3.24271 12.6241 3.2605 10.7261 3.3475C8.97232 3.42857 8.01933 3.72121 7.38467 3.96836C6.54438 4.29461 5.9453 4.68413 5.31459 5.31488C4.68585 5.94365 4.29438 6.54474 3.96815 7.38309C3.72298 8.0178 3.42838 8.97084 3.3493 10.7266C3.2623 12.6248 3.24451 13.1943 3.24451 17.999C3.24451 22.8057 3.2623 23.3752 3.3493 25.2734C3.42838 27.0292 3.72298 27.9822 3.96815 28.6169C4.29438 29.4553 4.68585 30.0564 5.31459 30.6851C5.9453 31.3159 6.54438 31.7054 7.38467 32.0316C8.01933 32.2788 8.97232 32.5714 10.7261 32.6525C12.6241 32.7395 13.1935 32.7573 18 32.7573C22.8065 32.7573 23.3759 32.7395 25.2739 32.6525C27.0277 32.5714 27.9807 32.2788 28.6153 32.0316C29.4556 31.7054 30.0547 31.3159 30.6854 30.6851C31.3141 30.0564 31.7056 29.4553 32.0319 28.6169C32.277 27.9822 32.5716 27.0292 32.6507 25.2734C32.7377 23.3752 32.7555 22.8057 32.7555 17.999C32.7555 13.1943 32.7377 12.6248 32.6507 10.7266C32.5716 8.97084 32.277 8.0178 32.0319 7.38309C31.7056 6.54474 31.3141 5.94365 30.6854 5.31488C30.0547 4.68413 29.4556 4.29461 28.6153 3.96836C27.9807 3.72121 27.0277 3.42857 25.2739 3.3475ZM18 24C14.6863 24 12.0013 21.3129 12.0013 17.999C12.0013 14.6871 14.6863 12 18 12C21.3137 12 24.0007 14.6871 24.0007 17.999C24.0007 21.3129 21.3137 24 18 24Z" fill="black"/>
</svg>
