<svg width="36px" height="36px" viewBox="0 0 36 36" version="1.1" xmlns="http://www.w3.org/2000/svg" xmlns:xlink="http://www.w3.org/1999/xlink">
    <g id="Home" stroke="none" stroke-width="1" fill="none" fill-rule="evenodd">
        <g id="Web-home-1" transform="translate(-1494.000000, -3111.000000)" fill="#000000">
            <g id="3-screen" transform="translate(0.000000, 2160.000000)">
                <g id="footer" transform="translate(390.000000, 921.000000)">
                    <g id="Socials" transform="translate(1008.000000, 30.000000)">
                        <path d="M114,0 C109.112478,0 108.499561,0.0197726149 106.579745,0.108749382 C104.663884,0.195748888 103.355009,0.500247158 102.210237,0.945130994 C101.025923,1.40583292 100.021529,2.02076125 99.0210896,3.02125556 C98.0206503,4.02174988 97.4057557,5.02619871 96.9450791,6.20860109 C96.5002197,7.35343549 96.1957381,8.6623826 96.1087434,10.578349 C96.0217487,12.4982699 96,13.111221 96,17.9990114 C96,22.888779 96.0217487,23.5017301 96.1087434,25.421651 C96.1957381,27.3376174 96.5002197,28.6465645 96.9450791,29.7913989 C97.4057557,30.9738013 98.0206503,31.9782501 99.0210896,32.9787444 C100.021529,33.9792388 101.025923,34.5961443 102.210237,35.054869 C103.355009,35.4997528 104.663884,35.8042511 106.579745,35.8912506 C108.499561,35.9802274 109.112478,36 114,36 C118.887522,36 119.500439,35.9802274 121.420255,35.8912506 C123.336116,35.8042511 124.644991,35.4997528 125.789763,35.054869 C126.974077,34.5961443 127.978471,33.9792388 128.97891,32.9787444 C129.97935,31.9782501 130.594244,30.9738013 131.054921,29.7913989 C131.49978,28.6465645 131.804262,27.3376174 131.891257,25.421651 C131.978251,23.5017301 132,22.888779 132,17.9990114 C132,13.111221 131.978251,12.4982699 131.891257,10.578349 C131.804262,8.6623826 131.49978,7.35343549 131.054921,6.20860109 C130.594244,5.02619871 129.97935,4.02174988 128.97891,3.02125556 C127.978471,2.02076125 126.974077,1.40583292 125.789763,0.945130994 C124.644991,0.500247158 123.336116,0.195748888 121.420255,0.108749382 C119.500439,0.0197726149 118.887522,0 114,0 M114.724515,3.24286423 C118.870078,3.24477374 119.475777,3.26508312 121.273946,3.34750371 C123.02768,3.42857143 123.980668,3.72120613 124.615334,3.96836382 C125.455624,4.29461196 126.054701,4.68413248 126.685413,5.31487889 C127.314148,5.94364805 127.705624,6.54473554 128.031854,7.38309441 C128.277021,8.01779535 128.571617,8.97083539 128.650703,10.7266436 C128.73083,12.474959 128.752251,13.0960711 128.755134,16.9374993 L128.755134,19.0609557 C128.752251,22.9039289 128.73083,23.525041 128.650703,25.2733564 C128.571617,27.0291646 128.277021,27.9822046 128.031854,28.6169056 C127.705624,29.4552645 127.314148,30.056352 126.685413,30.6851211 C126.054701,31.3158675 125.455624,31.705388 124.615334,32.0316362 C123.980668,32.2787939 123.02768,32.5714286 121.273946,32.6524963 C119.475777,32.7349169 118.870078,32.7552263 114.724515,32.7571358 L113.275485,32.7571358 C109.129922,32.7552263 108.524223,32.7349169 106.726054,32.6524963 C104.97232,32.5714286 104.019332,32.2787939 103.384666,32.0316362 C102.544376,31.705388 101.945299,31.3158675 101.314587,30.6851211 C100.685852,30.056352 100.294376,29.4552645 99.9681459,28.6169056 C99.7229789,27.9822046 99.4283831,27.0291646 99.349297,25.2733564 C99.2691703,23.525041 99.2477489,22.9039289 99.2448659,19.0609557 L99.2448659,16.9374993 C99.2477489,13.0960711 99.2691703,12.474959 99.349297,10.7266436 C99.4283831,8.97083539 99.7229789,8.01779535 99.9681459,7.38309441 C100.294376,6.54473554 100.685852,5.94364805 101.314587,5.31487889 C101.945299,4.68413248 102.544376,4.29461196 103.384666,3.96836382 C104.019332,3.72120613 104.97232,3.42857143 106.726054,3.34750371 C108.524223,3.26508312 109.129922,3.24477374 113.275485,3.24286423 L114.724515,3.24286423 Z M114,8.75729115 C108.894991,8.75729115 104.75681,12.8956995 104.75681,17.9990114 C104.75681,23.1043005 108.894991,27.2427088 114,27.2427088 C119.105009,27.2427088 123.24319,23.1043005 123.24319,17.9990114 C123.24319,12.8956995 119.105009,8.75729115 114,8.75729115 Z M114,12 C117.313708,12 120.000659,14.6870984 120.000659,17.9990114 C120.000659,21.3129016 117.313708,24 114,24 C110.686292,24 108.001318,21.3129016 108.001318,17.9990114 C108.001318,14.6870984 110.686292,12 114,12 Z M123.608765,6.23232823 C122.414565,6.23232823 121.447737,7.1992091 121.447737,8.39149778 C121.447737,9.58378646 122.414565,10.5506673 123.608765,10.5506673 C124.800989,10.5506673 125.767816,9.58378646 125.767816,8.39149778 C125.767816,7.1992091 124.800989,6.23232823 123.608765,6.23232823 Z" id="Combined-Shape"></path>
                    </g>
                </g>
            </g>
        </g>
    </g>
</svg>
