<svg width="90" height="90" viewBox="0 0 90 90" fill="none" xmlns="http://www.w3.org/2000/svg">
<path fill-rule="evenodd" clip-rule="evenodd" d="M45 90C69.8528 90 90 69.8528 90 45C90 20.1472 69.8528 0 45 0C20.1472 0 0 20.1472 0 45C0 69.8528 20.1472 90 45 90Z" fill="url(#paint0_linear)"/>
<path fill-rule="evenodd" clip-rule="evenodd" d="M69.7852 0H20.2148C9.05054 0 0 9.05054 0 20.2148V69.7852C0 80.9495 9.05054 90 20.2148 90H69.7852C80.9495 90 90 80.9495 90 69.7852V20.2148C90 9.05054 80.9495 0 69.7852 0Z" fill="url(#paint1_linear)"/>
<path fill-rule="evenodd" clip-rule="evenodd" d="M68.7554 63.7134C67.472 59.7243 65.6486 55.9054 63.3572 52.3979C60.6782 48.3461 57.1683 44.6729 52.7042 42.6168C48.2422 40.5271 42.927 40.3613 38.3507 42.1935C33.8507 43.9585 30.2221 47.4166 27.4536 51.3049C24.8441 55.0073 22.8349 59.124 21.3969 63.4177C21.0407 64.3943 21.0407 65.5142 21.5178 66.4503C22.136 67.7673 23.5853 68.6275 25.0389 68.5469C26.5195 68.4931 27.9195 67.474 28.3854 66.0607C29.5703 62.4613 31.2099 58.9941 33.3714 55.8718C35.1365 53.3589 37.3003 51.016 40.0665 49.6004C42.573 48.2925 45.5992 48.0304 48.2915 48.8949C51.0376 49.7842 53.3291 51.7013 55.1636 53.8829C57.7843 57.012 59.6927 60.6807 61.1308 64.486C61.5092 65.4178 61.6661 66.4795 62.3604 67.2522C63.2631 68.3184 64.793 68.7999 66.1415 68.4259C68.1372 67.9555 69.4229 65.6598 68.7554 63.7134Z" fill="url(#paint2_linear)"/>
<path fill-rule="evenodd" clip-rule="evenodd" d="M65.1995 20.7678C63.1376 20.7678 61.4662 22.4394 61.4662 24.5012V64.8517C61.4662 66.9136 63.1376 68.585 65.1995 68.585C67.2614 68.585 68.9329 66.9136 68.9329 64.8517V24.5012C68.9329 22.4394 67.2614 20.7678 65.1995 20.7678Z" fill="url(#paint3_linear)"/>
<path fill-rule="evenodd" clip-rule="evenodd" d="M24.879 20.7678C22.8172 20.7678 21.1456 22.4394 21.1456 24.5012V64.8517C21.1456 66.9136 22.8172 68.585 24.879 68.585C26.9409 68.585 28.6124 66.9136 28.6124 64.8517V24.5012C28.6124 22.4394 26.9409 20.7678 24.879 20.7678Z" fill="url(#paint4_linear)"/>
<path fill-rule="evenodd" clip-rule="evenodd" d="M68.5608 22.8725C67.9426 21.5555 66.4933 20.6954 65.0397 20.776C63.5591 20.8298 62.1591 21.8488 61.6932 23.2621C60.5082 26.8616 58.8687 30.3288 56.7072 33.451C54.9421 35.964 52.7783 38.3068 50.0121 39.7224C47.5056 41.0305 44.4794 41.2924 41.7871 40.4279C39.0409 39.5387 36.7495 37.6215 34.915 35.4399C32.2943 32.3109 30.3859 28.6421 28.9478 24.8368C28.5693 23.905 28.4125 22.8434 27.7181 22.0706C26.8154 21.0044 25.2856 20.5229 23.9372 20.8969C21.9414 21.3673 20.6557 23.6631 21.3232 25.6094C22.6066 29.5985 24.43 33.4174 26.7214 36.9249C29.4003 40.9767 32.9103 44.6499 37.3744 46.706C41.8364 48.7957 47.1517 48.9615 51.7279 47.1294C56.2279 45.3645 59.8565 41.9062 62.625 38.018C65.2345 34.3155 67.2437 30.1989 68.6817 25.9052C69.0379 24.9286 69.0379 23.8087 68.5608 22.8725Z" fill="white"/>
<defs>
<linearGradient id="paint0_linear" x1="89.9998" y1="90" x2="89.9998" y2="0.000493524" gradientUnits="userSpaceOnUse">
<stop stop-color="#FCB047"/>
<stop offset="1" stop-color="#FAD200"/>
</linearGradient>
<linearGradient id="paint1_linear" x1="89.9998" y1="90" x2="89.9998" y2="0.000493524" gradientUnits="userSpaceOnUse">
<stop stop-color="#FCB047"/>
<stop offset="1" stop-color="#FAD200"/>
</linearGradient>
<linearGradient id="paint2_linear" x1="68.9327" y1="68.5525" x2="68.9327" y2="40.9277" gradientUnits="userSpaceOnUse">
<stop stop-color="#FAD200"/>
<stop offset="1" stop-color="white" stop-opacity="0.01"/>
</linearGradient>
<linearGradient id="paint3_linear" x1="68.9325" y1="68.5852" x2="68.9325" y2="20.7681" gradientUnits="userSpaceOnUse">
<stop stop-color="white"/>
<stop offset="1" stop-color="#FAD200"/>
</linearGradient>
<linearGradient id="paint4_linear" x1="28.612" y1="68.5852" x2="28.612" y2="20.7681" gradientUnits="userSpaceOnUse">
<stop stop-color="white"/>
<stop offset="1" stop-color="#FAD200"/>
</linearGradient>
</defs>
</svg>
