<svg width="190" height="276" viewBox="0 0 190 276" fill="none" xmlns="http://www.w3.org/2000/svg">
<g filter="url(#filter0_d)">
<path fill-rule="evenodd" clip-rule="evenodd" d="M50 30.999H87.9614L93.2282 25.7322C93.7174 25.2431 94.3589 24.999 95 25C95.6411 24.999 96.2826 25.2431 96.7718 25.7322L102.039 30.999H140C148.284 30.999 155 37.7148 155 45.999V215.999C155 224.283 148.284 230.999 140 230.999H50C41.7157 230.999 35 224.283 35 215.999V45.999C35 37.7148 41.7157 30.999 50 30.999Z" fill="white"/>
</g>
<g filter="url(#filter1_d)">
<path d="M35 130.999H155V215.999C155 224.283 148.284 230.999 140 230.999H50C41.7157 230.999 35 224.283 35 215.999V130.999Z" fill="white"/>
</g>
<g filter="url(#filter2_d)">
<path d="M35 45.999C35 37.7148 41.7157 30.999 50 30.999H140C148.284 30.999 155 37.7148 155 45.999V130.999H35V45.999Z" fill="white"/>
</g>
<defs>
<filter id="filter0_d" x="0" y="0" width="190" height="275.999" filterUnits="userSpaceOnUse" color-interpolation-filters="sRGB">
<feFlood flood-opacity="0" result="BackgroundImageFix"/>
<feColorMatrix in="SourceAlpha" type="matrix" values="0 0 0 0 0 0 0 0 0 0 0 0 0 0 0 0 0 0 127 0"/>
<feOffset dy="10"/>
<feGaussianBlur stdDeviation="17.5"/>
<feColorMatrix type="matrix" values="0 0 0 0 0 0 0 0 0 0 0 0 0 0 0 0 0 0 0.202502 0"/>
<feBlend mode="normal" in2="BackgroundImageFix" result="effect1_dropShadow"/>
<feBlend mode="normal" in="SourceGraphic" in2="effect1_dropShadow" result="shape"/>
</filter>
<filter id="filter1_d" x="35" y="130.999" width="120" height="102" filterUnits="userSpaceOnUse" color-interpolation-filters="sRGB">
<feFlood flood-opacity="0" result="BackgroundImageFix"/>
<feColorMatrix in="SourceAlpha" type="matrix" values="0 0 0 0 0 0 0 0 0 0 0 0 0 0 0 0 0 0 127 0"/>
<feOffset dy="2"/>
<feColorMatrix type="matrix" values="0 0 0 0 1 0 0 0 0 1 0 0 0 0 1 0 0 0 0.0996943 0"/>
<feBlend mode="normal" in2="BackgroundImageFix" result="effect1_dropShadow"/>
<feBlend mode="normal" in="SourceGraphic" in2="effect1_dropShadow" result="shape"/>
</filter>
<filter id="filter2_d" x="35" y="30.999" width="120" height="102" filterUnits="userSpaceOnUse" color-interpolation-filters="sRGB">
<feFlood flood-opacity="0" result="BackgroundImageFix"/>
<feColorMatrix in="SourceAlpha" type="matrix" values="0 0 0 0 0 0 0 0 0 0 0 0 0 0 0 0 0 0 127 0"/>
<feOffset dy="2"/>
<feColorMatrix type="matrix" values="0 0 0 0 0 0 0 0 0 0 0 0 0 0 0 0 0 0 0.0996943 0"/>
<feBlend mode="normal" in2="BackgroundImageFix" result="effect1_dropShadow"/>
<feBlend mode="normal" in="SourceGraphic" in2="effect1_dropShadow" result="shape"/>
</filter>
</defs>
</svg>
