<svg width="1820" height="1820" viewBox="0 0 1820 1820" fill="none" xmlns="http://www.w3.org/2000/svg">
<path opacity="0.1" fill-rule="evenodd" clip-rule="evenodd" d="M0 909.9C0 407.433 407.433 0 909.9 0C1412.37 0 1819.8 407.433 1819.8 909.9C1819.8 1412.37 1412.37 1819.8 909.9 1819.8C407.433 1819.8 0 1412.37 0 909.9ZM1263.35 73.3986C1151.33 26.0838 1032.43 2.022 909.9 2.022C787.367 2.022 668.473 26.0838 556.454 73.3986C448.48 119.096 351.221 184.609 267.915 267.915C184.609 351.221 119.096 448.277 73.3986 556.454C26.0838 668.473 2.022 787.367 2.022 909.9C2.022 1032.43 26.0838 1151.33 73.3986 1263.35C119.096 1371.32 184.609 1468.58 267.915 1551.88C351.221 1635.19 448.277 1700.7 556.454 1746.4C668.473 1793.72 787.367 1817.78 909.9 1817.78C1032.43 1817.78 1151.33 1793.72 1263.35 1746.4C1371.32 1700.7 1468.58 1635.19 1551.88 1551.88C1635.19 1468.58 1700.7 1371.52 1746.4 1263.35C1793.72 1151.33 1817.78 1032.43 1817.78 909.9C1817.78 787.367 1793.72 668.473 1746.4 556.454C1700.7 448.48 1635.19 351.221 1551.88 267.915C1468.58 184.609 1371.52 119.096 1263.35 73.3986Z" fill="#FCB047"/>
</svg>
