<svg width="1366" height="1366" viewBox="0 0 1366 1366" fill="none" xmlns="http://www.w3.org/2000/svg">
<path opacity="0.2" fill-rule="evenodd" clip-rule="evenodd" d="M0.474609 682.9C0.474609 305.999 305.999 0.475098 682.9 0.475098C1059.8 0.475098 1365.32 305.999 1365.32 682.9C1365.32 1059.8 1059.8 1365.32 682.9 1365.32C305.999 1365.32 0.474609 1059.8 0.474609 682.9ZM947.781 55.8779C863.869 20.4929 774.698 2.4971 682.9 2.4971C591.101 2.4971 501.931 20.4929 418.018 55.8779C336.935 90.0497 264.143 139.184 201.664 201.664C139.184 264.144 90.0492 336.936 55.8774 418.018C20.4924 501.931 2.49661 591.101 2.49661 682.9C2.49661 774.699 20.4924 863.869 55.8774 947.782C90.0492 1028.86 139.184 1101.66 201.664 1164.14C264.143 1226.62 336.935 1275.75 418.018 1309.92C501.931 1345.31 591.101 1363.3 682.9 1363.3C774.698 1363.3 863.869 1345.31 947.781 1309.92C1028.86 1275.75 1101.66 1226.62 1164.14 1164.14C1226.62 1101.66 1275.75 1028.86 1309.92 947.782C1345.31 863.869 1363.3 774.699 1363.3 682.9C1363.3 591.101 1345.31 501.931 1309.92 418.018C1275.75 336.936 1226.62 264.144 1164.14 201.664C1101.66 139.184 1028.86 90.0497 947.781 55.8779Z" fill="#FCB047"/>
</svg>
