<svg width="105" height="15" viewBox="0 0 105 15" fill="none" xmlns="http://www.w3.org/2000/svg">
<path fill-rule="evenodd" clip-rule="evenodd" d="M104.835 5.44815C104.748 5.35665 104.635 5.29665 104.514 5.27715L100.042 4.56165L98.0154 0.331652C97.8729 0.0346518 97.5279 -0.0853482 97.2444 0.0646518C97.1334 0.121652 97.0434 0.216152 96.9879 0.331652L94.9613 4.56165L90.4896 5.27715C90.1761 5.32815 89.9616 5.63565 90.0111 5.96415C90.0291 6.09165 90.0861 6.20865 90.1731 6.30015L93.3862 9.62565L92.6527 14.2937C92.6002 14.6222 92.8102 14.9327 93.1237 14.9882C93.2482 15.0092 93.3757 14.9882 93.4882 14.9267L97.5024 12.7517L101.515 14.9267C101.62 14.9837 101.739 15.0062 101.856 14.9927V14.9912C102.171 14.9507 102.394 14.6507 102.355 14.3207C102.354 14.3117 102.354 14.3027 102.352 14.2937L101.619 9.62565L104.83 6.30015C105.055 6.06615 105.057 5.68515 104.835 5.44815Z" fill="#9297A2"/>
<path fill-rule="evenodd" clip-rule="evenodd" d="M14.5107 5.27715L10.039 4.56165L8.01247 0.331652C7.86997 0.0346518 7.52496 -0.0853482 7.24145 0.0646518C7.13045 0.121652 7.04044 0.216152 6.98494 0.331652L4.95837 4.56165L0.486729 5.27715C0.173219 5.32815 -0.0412879 5.63565 0.0067137 5.96415C0.0262143 6.09165 0.0832162 6.20865 0.170219 6.30015L3.38332 9.62565L2.6498 14.2937C2.5973 14.6222 2.8073 14.9327 3.12081 14.9882C3.24532 15.0092 3.37282 14.9882 3.48533 14.9267L7.49946 12.7517L11.5121 14.9267C11.6171 14.9837 11.7356 15.0062 11.8526 14.9927V14.9912C12.1676 14.9507 12.3911 14.6507 12.3521 14.3207C12.3506 14.3117 12.3506 14.3027 12.3491 14.2937L11.6156 9.62565L14.8272 6.30015C15.0522 6.06615 15.0537 5.68515 14.8317 5.44815C14.7447 5.35665 14.6322 5.29665 14.5107 5.27715ZM37.0114 5.27715L32.5398 4.56165L30.5132 0.331652C30.3707 0.0346518 30.0257 -0.0853482 29.7422 0.0646518C29.6312 0.121652 29.5412 0.216152 29.4857 0.331652L27.4591 4.56165L22.9875 5.27715C22.674 5.32815 22.4594 5.63565 22.5089 5.96415C22.5269 6.09165 22.5839 6.20865 22.6709 6.30015L25.8841 9.62565L25.1505 14.2937C25.098 14.6222 25.308 14.9327 25.6215 14.9882C25.746 15.0092 25.8736 14.9882 25.9861 14.9267L30.0002 12.7517L34.0128 14.9267C34.1178 14.9837 34.2363 15.0062 34.3533 14.9927V14.9912C34.6683 14.9507 34.8918 14.6507 34.8528 14.3207C34.8513 14.3117 34.8513 14.3027 34.8498 14.2937L34.1163 9.62565L37.3279 6.30015C37.5529 6.06615 37.5544 5.68515 37.3324 5.44815C37.2454 5.35665 37.1329 5.29665 37.0114 5.27715ZM59.5121 5.27715L55.0405 4.56165L53.0139 0.331652C52.8714 0.0346518 52.5264 -0.0853482 52.2429 0.0646518C52.1319 0.121652 52.0419 0.216152 51.9864 0.331652L49.9598 4.56165L45.4882 5.27715C45.1747 5.32815 44.9602 5.63565 45.0082 5.96415C45.0277 6.09165 45.0847 6.20865 45.1717 6.30015L48.3848 9.62565L47.6513 14.2937C47.5988 14.6222 47.8088 14.9327 48.1223 14.9882C48.2468 15.0092 48.3743 14.9882 48.4868 14.9267L52.5009 12.7517L56.5135 14.9267C56.6185 14.9837 56.7371 15.0062 56.8541 14.9927V14.9912C57.1691 14.9507 57.3926 14.6507 57.3536 14.3207C57.3521 14.3117 57.3521 14.3027 57.3506 14.2937L56.617 9.62565L59.8287 6.30015C60.0537 6.06615 60.0552 5.68515 59.8332 5.44815C59.7461 5.35665 59.6336 5.29665 59.5121 5.27715ZM82.0129 5.27715L77.5412 4.56165L75.5147 0.331652C75.3722 0.0346518 75.0271 -0.0853482 74.7436 0.0646518C74.6326 0.121652 74.5426 0.216152 74.4871 0.331652L72.4606 4.56165L67.9889 5.27715C67.6754 5.32815 67.4609 5.63565 67.5089 5.96415C67.5284 6.09165 67.5854 6.20865 67.6724 6.30015L70.8855 9.62565L70.152 14.2937C70.0995 14.6222 70.3095 14.9327 70.623 14.9882C70.7475 15.0092 70.875 14.9882 70.9875 14.9267L75.0016 12.7517L79.0143 14.9267C79.1193 14.9837 79.2378 15.0062 79.3548 14.9927V14.9912C79.6698 14.9507 79.8933 14.6507 79.8543 14.3207C79.8528 14.3117 79.8528 14.3027 79.8513 14.2937L79.1178 9.62565L82.3294 6.30015C82.5544 6.06615 82.5559 5.68515 82.3339 5.44815C82.2469 5.35665 82.1344 5.29665 82.0129 5.27715Z" fill="white"/>
</svg>
