<svg width="16" height="24" viewBox="0 0 16 24" fill="none" xmlns="http://www.w3.org/2000/svg">
<path fill-rule="evenodd" clip-rule="evenodd" d="M1.48467 4.25061C0.524976 3.29092 0.524976 1.73495 1.48467 0.775256C2.44436 -0.184437 4.00033 -0.184439 4.96003 0.775255L13.9633 9.77852C14.1613 9.88767 14.3474 10.0262 14.5153 10.1941C15.0125 10.6913 15.2521 11.3485 15.2342 12C15.2521 12.6515 15.0125 13.3087 14.5153 13.8059C14.3474 13.9738 14.1613 14.1123 13.9633 14.2215L4.96003 23.2247C4.00033 24.1844 2.44436 24.1844 1.48467 23.2247C0.524976 22.265 0.524976 20.7091 1.48467 19.7494L9.23405 12L1.48467 4.25061Z" fill="black"/>
</svg>
