<?xml version="1.0" encoding="utf-8"?><svg width="172" height="54" fill="none" xmlns="http://www.w3.org/2000/svg" viewBox="0 0 172 54"><path fill-rule="evenodd" clip-rule="evenodd" d="M136.924 8.572c-1.781 0-3.224 1.476-3.224 3.296V38.9c0 1.822 1.443 3.297 3.224 3.297 1.781 0 3.224-1.475 3.224-3.297V11.868c0-1.82-1.443-3.296-3.224-3.296zm-19.993 27.032c-4.453 0-8.063-3.837-8.063-8.57 0-4.735 3.61-8.572 8.063-8.572 4.451 0 8.061 3.837 8.061 8.571s-3.61 8.57-8.061 8.57zm0-23.736c-8.016 0-14.513 6.79-14.513 15.165 0 .151.003.302.007.452a4.722 4.722 0 00-.006.208v23.009c0 1.822 1.443 3.298 3.225 3.298 1.781 0 3.224-1.476 3.224-3.298V39.644a14.01 14.01 0 008.063 2.553c8.014 0 14.512-6.79 14.512-15.164 0-8.375-6.498-15.165-14.512-15.165zm39.986 23.735c-4.451 0-8.061-3.836-8.061-8.57s3.61-8.571 8.061-8.571c4.453 0 8.063 3.837 8.063 8.571s-3.61 8.57-8.063 8.57zm0-23.735c-8.014 0-14.512 6.79-14.512 15.165 0 8.374 6.498 15.164 14.512 15.164 8.016 0 14.512-6.79 14.512-15.164 0-8.375-6.496-15.165-14.512-15.165zM136.924 0c-1.781 0-3.224 1.476-3.224 3.297 0 1.821 1.443 3.297 3.224 3.297 1.781 0 3.224-1.476 3.224-3.297 0-1.82-1.443-3.297-3.224-3.297zM96.936 8.572c-1.78 0-3.224 1.476-3.224 3.296V38.9c0 1.822 1.443 3.297 3.224 3.297 1.782 0 3.225-1.475 3.225-3.297V11.868c0-1.82-1.443-3.296-3.225-3.296zm-38.89 3.296c-.048 0-.096 0-.143.002a6.887 6.887 0 00-.871.035c-3.147.226-6.019 1.504-8.296 3.496-2.204 1.75-4.081 3.96-5.718 6.255a54.844 54.844 0 00-1.742 2.668V3.389a3.204 3.204 0 00-.321-1.53 3.121 3.121 0 00-.719-.986l-.043-.04c-.01-.009-.018-.017-.028-.024A3.169 3.169 0 0038.052 0c-1.52 0-2.795 1.076-3.135 2.524-1.014 3.063-2.397 6.012-4.201 8.676-1.524 2.219-3.393 4.288-5.783 5.538a9.161 9.161 0 01-7.104.622c-2.372-.784-4.352-2.478-5.936-4.403-2.264-2.763-3.913-6.004-5.154-9.363-.182-.456-.305-.948-.479-1.411a3.508 3.508 0 00-.197-.45 2.74 2.74 0 00-.387-.582c-.21-.254-.46-.47-.736-.644A3.16 3.16 0 003.224 0C1.454 0 .02 1.457 0 3.263V38.9c0 1.822 1.443 3.297 3.224 3.297 1.782 0 3.225-1.475 3.225-3.297V16.57c2.055 2.635 4.561 4.92 7.568 6.335 3.855 1.846 8.446 1.992 12.399.374 3.366-1.35 6.167-3.822 8.411-6.69V38.9c0 .873.332 1.667.873 2.257.269.3.593.548.963.719.06.03.122.058.184.084.383.166.79.243 1.199.237h.006c1.561 0 2.863-1.134 3.161-2.639 1.395-3.899 3.102-7.688 5.199-11.243 1.481-2.482 3.167-4.87 5.263-6.846 1.405-1.302 3.037-2.447 4.914-2.862.437-.11.894-.115 1.346-.145h.111c4.452 0 8.062 3.837 8.062 8.571s-3.61 8.57-8.062 8.57c-3.634 0-6.706-2.555-7.713-6.067-1.191 1.417-3.066 3.966-4.261 6.065 2.614 3.983 7.001 6.596 11.974 6.596 8.015 0 14.512-6.79 14.512-15.164 0-8.375-6.497-15.165-14.512-15.165zM89.7 32.54c-1.45-.806-3.451-.218-4.235 1.272-.368.685-.758 1.48-1.535 1.742-.704.207-1.31-.388-1.671-.937-.806-1.276-.989-2.844-1.004-4.334V15.165h.978c1.78 0 3.224-1.476 3.224-3.297 0-1.82-1.444-3.296-3.224-3.296h-.978v-3.82c-.023-.95.124-1.963-.303-2.845C80.316.45 78.572-.348 77.09.151c-1.349.403-2.33 1.787-2.277 3.228v5.193h-.966c-1.782 0-3.226 1.476-3.226 3.296 0 1.82 1.444 3.297 3.226 3.297h.966v15.127c.004 2.21.348 4.456 1.262 6.474.83 1.853 2.175 3.506 3.945 4.475 1.83 1.037 4.087 1.247 6.061.53 2.367-.829 4.22-2.845 5.179-5.177.571-1.504-.15-3.352-1.562-4.054zM96.936 0c-1.78 0-3.224 1.476-3.224 3.297 0 1.821 1.443 3.297 3.224 3.297 1.782 0 3.225-1.476 3.225-3.297 0-1.82-1.443-3.297-3.225-3.297z" fill="#fff"/></svg>