<?xml version="1.0" encoding="utf-8"?><svg width="105" height="15" fill="none" xmlns="http://www.w3.org/2000/svg" viewBox="0 0 105 15"><path fill-rule="evenodd" clip-rule="evenodd" d="M104.835 5.448a.57.57 0 00-.321-.17l-4.472-.716-2.027-4.23a.561.561 0 00-.77-.267.582.582 0 00-.257.267l-2.027 4.23-4.471.715a.597.597 0 00-.479.687.61.61 0 00.162.336l3.213 3.326-.733 4.668a.6.6 0 00.47.694c.125.021.253 0 .365-.061l4.014-2.175 4.013 2.175c.105.057.224.08.341.066v-.002a.595.595 0 00.499-.67l-.003-.027-.733-4.668L104.83 6.3a.625.625 0 00.005-.852zM14.51 5.277l-4.471-.715L8.012.332a.561.561 0 00-.77-.267.582.582 0 00-.257.267l-2.027 4.23-4.471.715a.6.6 0 00-.48.687c.02.128.076.245.163.336l3.213 3.326-.733 4.668a.6.6 0 00.47.694c.125.021.253 0 .365-.061L7.5 12.752l4.013 2.175c.105.057.224.08.34.066v-.002a.596.596 0 00.5-.67l-.003-.027-.733-4.668L14.827 6.3a.625.625 0 00.005-.852.568.568 0 00-.321-.17zm22.501 0l-4.471-.715-2.027-4.23a.561.561 0 00-.77-.267.582.582 0 00-.257.267l-2.027 4.23-4.471.715a.597.597 0 00-.48.687.61.61 0 00.163.336l3.213 3.326-.733 4.668a.6.6 0 00.47.694c.125.021.253 0 .365-.061L30 12.752l4.013 2.175c.105.057.223.08.34.066v-.002a.596.596 0 00.5-.67l-.003-.027-.734-4.668L37.328 6.3a.625.625 0 00.004-.852.568.568 0 00-.32-.17zm22.501 0l-4.471-.715-2.027-4.23a.561.561 0 00-.771-.267.582.582 0 00-.257.267l-2.026 4.23-4.472.715a.6.6 0 00-.48.687c.02.128.077.245.164.336l3.213 3.326-.734 4.668a.6.6 0 00.471.694c.125.021.252 0 .365-.061l4.014-2.175 4.013 2.175c.104.057.223.08.34.066v-.002a.596.596 0 00.5-.67l-.003-.027-.734-4.668L59.829 6.3a.625.625 0 00.004-.852.568.568 0 00-.32-.17zm22.5 0l-4.47-.715-2.027-4.23a.562.562 0 00-.771-.267.582.582 0 00-.257.267l-2.026 4.23-4.472.715a.6.6 0 00-.48.687c.02.128.076.245.163.336l3.213 3.326-.733 4.668a.6.6 0 00.471.694c.124.021.252 0 .364-.061l4.015-2.175 4.012 2.175c.105.057.224.08.34.066v-.002a.596.596 0 00.5-.67l-.003-.027-.733-4.668L82.329 6.3a.625.625 0 00.005-.852.568.568 0 00-.321-.17z" fill="#fff"/></svg>