<?xml version="1.0" encoding="utf-8"?><svg width="1366" height="1366" fill="none" xmlns="http://www.w3.org/2000/svg" viewBox="0 0 1366 1366"><path opacity=".2" fill-rule="evenodd" clip-rule="evenodd" d="M.475 682.9C.475 305.999 305.999.475 682.9.475 1059.8.475 1365.32 306 1365.32 682.9c0 376.9-305.52 682.42-682.42 682.42C305.999 1365.32.475 1059.8.475 682.9zM947.78 55.878C863.869 20.493 774.698 2.498 682.9 2.498c-91.799 0-180.969 17.995-264.882 53.38-81.083 34.172-153.875 83.306-216.354 145.786-62.48 62.48-111.615 135.272-145.787 216.354C20.492 501.931 2.497 591.101 2.497 682.9s17.995 180.969 53.38 264.882c34.172 81.078 83.307 153.878 145.787 216.358 62.479 62.48 135.271 111.61 216.354 145.78 83.913 35.39 173.083 53.38 264.882 53.38 91.798 0 180.969-17.99 264.881-53.38 81.079-34.17 153.879-83.3 216.359-145.78 62.48-62.48 111.61-135.28 145.78-216.358 35.39-83.913 53.38-173.083 53.38-264.882s-17.99-180.969-53.38-264.882c-34.17-81.082-83.3-153.874-145.78-216.354-62.48-62.48-135.28-111.614-216.359-145.786z" fill="#FCB047"/></svg>