<?xml version="1.0" encoding="utf-8"?><svg width="50" height="50" fill="none" xmlns="http://www.w3.org/2000/svg" viewBox="0 0 50 50"><path fill-rule="evenodd" clip-rule="evenodd" d="M25 50c13.807 0 25-11.193 25-25S38.807 0 25 0 0 11.193 0 25s11.193 25 25 25z" fill="url(#appaint0_linear)"/><path fill-rule="evenodd" clip-rule="evenodd" d="M25 50c13.807 0 25-11.193 25-25S38.807 0 25 0 0 11.193 0 25s11.193 25 25 25z" fill="url(#appaint1_radial)"/><mask id="apa" maskUnits="userSpaceOnUse" x="0" y="0" width="50" height="50"><path fill-rule="evenodd" clip-rule="evenodd" d="M25 50c13.807 0 25-11.193 25-25S38.807 0 25 0 0 11.193 0 25s11.193 25 25 25z" fill="#fff"/><path fill-rule="evenodd" clip-rule="evenodd" d="M25 50c13.807 0 25-11.193 25-25S38.807 0 25 0 0 11.193 0 25s11.193 25 25 25z" stroke="#fff"/></mask><g mask="url(#apa)"><mask id="apb" maskUnits="userSpaceOnUse" x="15.066" y="9" width="20" height="33" fill="#000"><path fill="#fff" d="M15.066 9h20v33h-20z"/><path fill-rule="evenodd" clip-rule="evenodd" d="M22.744 29.547c0-1.382-.087-2.132.132-3.05.219-.917.52-1.707.903-2.368a7.873 7.873 0 011.314-1.705c.492-.475.952-.93 1.38-1.363.426-.431.782-.88 1.067-1.347.284-.465.427-1.024.427-1.679 0-.849-.214-1.538-.64-2.07-.428-.535-1.189-.835-2.284-.898a5.1 5.1 0 00-1.116.066 6.764 6.764 0 00-1.183.31 8.223 8.223 0 00-2.102 1.124c-1.893.97-3.75-2.603-1.642-3.772 2.107-1.169 1.79-1.081 2.874-1.427 1.084-.34 2.392-.443 3.925-.315 2.058.171 3.667.852 4.828 2.029 1.16 1.16 1.74 2.64 1.74 4.454 0 1.202-.147 2.192-.443 2.975-.295.786-.662 1.456-1.1 2.009A9.51 9.51 0 0129.379 24c-.526.434-1.007.901-1.445 1.4a7.294 7.294 0 00-1.117 1.75c-.307.668-.46.764-.46 2.546 0 1.78-3.613 1.78-3.613-.149zm-.69 8.094c0-.773.227-1.398.681-1.874.454-.473 1.052-.727 1.794-.762.784-.038 1.403.153 1.856.57.454.414.68.994.68 1.74 0 .748-.226 1.362-.68 1.846-.453.487-1.072.764-1.856.828-.742.06-1.34-.12-1.794-.546-.454-.428-.68-1.03-.68-1.802z"/></mask><path fill-rule="evenodd" clip-rule="evenodd" d="M22.744 29.547c0-1.382-.087-2.132.132-3.05.219-.917.52-1.707.903-2.368a7.873 7.873 0 011.314-1.705c.492-.475.952-.93 1.38-1.363.426-.431.782-.88 1.067-1.347.284-.465.427-1.024.427-1.679 0-.849-.214-1.538-.64-2.07-.428-.535-1.189-.835-2.284-.898a5.1 5.1 0 00-1.116.066 6.764 6.764 0 00-1.183.31 8.223 8.223 0 00-2.102 1.124c-1.893.97-3.75-2.603-1.642-3.772 2.107-1.169 1.79-1.081 2.874-1.427 1.084-.34 2.392-.443 3.925-.315 2.058.171 3.667.852 4.828 2.029 1.16 1.16 1.74 2.64 1.74 4.454 0 1.202-.147 2.192-.443 2.975-.295.786-.662 1.456-1.1 2.009A9.51 9.51 0 0129.379 24c-.526.434-1.007.901-1.445 1.4a7.294 7.294 0 00-1.117 1.75c-.307.668-.46.764-.46 2.546 0 1.78-3.613 1.78-3.613-.149zm-.69 8.094c0-.773.227-1.398.681-1.874.454-.473 1.052-.727 1.794-.762.784-.038 1.403.153 1.856.57.454.414.68.994.68 1.74 0 .748-.226 1.362-.68 1.846-.453.487-1.072.764-1.856.828-.742.06-1.34-.12-1.794-.546-.454-.428-.68-1.03-.68-1.802z" fill="#fff"/><path d="M22.876 26.496l-1.946-.465v.002l1.946.463zm.903-2.367l-1.729-1.006-.002.003 1.73 1.003zm1.314-1.705l-1.388-1.44-.005.004 1.393 1.436zm1.38-1.363l-1.422-1.407-.004.004 1.425 1.403zm1.067-1.347l-1.706-1.044-.002.003 1.708 1.041zm-.214-3.75l-1.563 1.248.003.004 1.56-1.251zm-2.283-.897l.115-1.997-.115 1.997zm-1.116.066l-.324-1.973h-.002l.326 1.973zm-1.183.31l-.674-1.884-.004.002.678 1.881zm-1.133.506l-.953-1.758-.004.002.957 1.756zm-.969.618l.912 1.78.155-.08.139-.104-1.206-1.596zm1.232-5.199l-.598-1.908-.01.003.608 1.905zm3.925-.315l-.166 1.993.166-1.993zm4.828 2.029l-1.424 1.404.005.005.005.005 1.414-1.414zm1.297 7.43l-1.87-.707-.002.002 1.872.704zm-1.1 2.008l-1.568-1.242-.003.005 1.571 1.237zM29.379 24l-1.268-1.546-.005.004 1.273 1.543zm-1.445 1.4l-1.504-1.318-.004.004 1.508 1.315zm-1.117 1.75l-1.816-.837-.001.002 1.817.836zm-4.082 8.617l-1.443-1.384-.004.004 1.447 1.38zm1.794-.762l.096 1.997-.096-1.997zm1.856.57l-1.353 1.472.005.005 1.348-1.477zm0 3.586l-1.459-1.368-.004.005 1.463 1.363zm-1.856.828l.163 1.993-.163-1.993zm-1.794-.546l-1.372 1.455.005.004 1.367-1.459zm2.01-9.896c0-1.635-.07-1.972.076-2.587l-3.89-.928c-.292 1.223-.187 2.387-.187 3.515h4zm.076-2.586c.184-.77.422-1.37.689-1.83l-3.462-2.005c-.5.864-.864 1.842-1.118 2.905l3.89.93zm.686-1.826a5.88 5.88 0 01.978-1.276L23.7 20.99a9.867 9.867 0 00-1.65 2.134l3.457 2.011zm.974-1.271c.503-.486.975-.952 1.416-1.4l-2.85-2.806c-.413.42-.86.861-1.342 1.326l2.776 2.88zm1.412-1.396c.525-.53.98-1.1 1.354-1.713l-3.415-2.082c-.195.32-.451.648-.781.981l2.842 2.814zm1.353-1.71c.512-.837.72-1.774.72-2.723h-4c0 .36-.075.542-.132.635l3.412 2.088zm.72-2.723c0-1.19-.305-2.355-1.08-3.322l-3.12 2.503c.079.098.2.312.2.819h4zm-1.077-3.318c-.946-1.186-2.4-1.57-3.731-1.647l-.23 3.993c.403.023.646.086.775.137.117.046.103.067.06.012l3.126-2.495zm-3.731-1.647a7.1 7.1 0 00-1.555.09l.647 3.947a3.12 3.12 0 01.679-.044l.229-3.993zm-1.557.09a8.772 8.772 0 00-1.531.4l1.349 3.765c.285-.102.563-.174.833-.218l-.65-3.947zm-1.535.4c-.486.176-.956.386-1.408.63l1.906 3.517c.271-.147.557-.274.858-.383l-1.356-3.763zm-1.412.633a9.78 9.78 0 00-1.217.778l2.41 3.192c.196-.148.433-.301.72-.458l-1.913-3.512zm-.924.594a.584.584 0 01.275-.055.528.528 0 01.226.053c.029.016.021.018-.009-.015a.655.655 0 01-.152-.323c-.007-.048-.002-.067-.004-.057a.273.273 0 01-.046.1c-.034.047-.063.062-.05.054l-1.94-3.498a3.731 3.731 0 00-1.893 2.592c-.187.977.012 1.936.379 2.705.364.765.977 1.517 1.835 1.973.921.49 2.086.603 3.203.03l-1.824-3.56zm.24-.243c1.148-.637 1.474-.84 1.779-1 .15-.078.193-.098.732-.27l-1.214-3.811c-.545.173-.885.282-1.374.538-.335.176-.904.513-1.863 1.045l1.94 3.498zm2.502-1.267c.764-.24 1.797-.345 3.16-.231l.333-3.986c-1.702-.142-3.286-.04-4.69.4l1.197 3.817zm3.16-.231c1.7.142 2.82.679 3.57 1.44l2.849-2.809c-1.57-1.592-3.67-2.416-6.086-2.617l-.332 3.986zm3.58 1.45c.746.745 1.156 1.698 1.156 3.04h4c0-2.285-.752-4.294-2.327-5.869l-2.828 2.83zm1.156 3.04c0 1.056-.133 1.787-.315 2.269l3.742 1.413c.41-1.084.573-2.335.573-3.682h-4zm-.316 2.271c-.236.628-.508 1.108-.796 1.471l3.136 2.483c.588-.742 1.05-1.602 1.404-2.546l-3.744-1.408zm-.8 1.476a7.515 7.515 0 01-1.14 1.17l2.535 3.094a11.505 11.505 0 001.749-1.79l-3.143-2.474zm-1.146 1.175c-.607.5-1.166 1.042-1.676 1.624l3.008 2.637c.365-.417.77-.809 1.214-1.176l-2.546-3.085zm-1.68 1.628a9.288 9.288 0 00-1.425 2.227l3.632 1.676c.235-.509.507-.928.808-1.274l-3.015-2.629zM25 26.316c-.076.163-.339.646-.476 1.237-.132.57-.167 1.238-.167 2.143h4c0-.877.042-1.148.063-1.239.016-.069-.017.032.214-.471L25 26.316zm-.643 3.38c0-.13.037-.289.124-.436a.73.73 0 01.221-.241c.044-.029.057-.027.026-.019a.536.536 0 01-.136.013.529.529 0 01-.135-.018c-.03-.01-.019-.011.02.016a.64.64 0 01.178.212.7.7 0 01.09.324h-4c0 1.2.598 2.138 1.396 2.712.739.53 1.61.738 2.369.754.757.015 1.626-.155 2.373-.641.806-.525 1.474-1.443 1.474-2.676h-4zm-.302 7.945c0-.356.09-.455.128-.494l-2.895-2.76c-.87.912-1.233 2.064-1.233 3.254h4zm.124-.49c.05-.052.139-.134.447-.149l-.193-3.995c-1.177.057-2.284.482-3.141 1.376l2.887 2.768zm.447-.149c.207-.01.32.014.367.029a.175.175 0 01.035.014l.004.002 2.707-2.945c-.946-.87-2.14-1.151-3.306-1.095l.192 3.995zm.41.05c.003.002 0 0-.003-.006-.004-.005-.003-.006 0 .003a.778.778 0 01.033.267h4c0-1.179-.376-2.345-1.332-3.218l-2.697 2.953zm.03.264c0 .307-.078.411-.14.477l2.918 2.736c.846-.902 1.222-2.026 1.222-3.213h-4zm-.144.482c-.055.059-.175.166-.556.197l.326 3.987c1.187-.097 2.304-.542 3.156-1.457l-2.926-2.727zm-.556.197a.743.743 0 01-.26-.01c-.009-.003-.009-.004-.004-.001.004.002.005.003 0 0l-2.735 2.918c.949.889 2.144 1.176 3.325 1.08l-.326-3.987zm-.259-.007l-.002-.002-.002-.004a.953.953 0 01-.049-.341h-4c0 1.182.362 2.364 1.309 3.257l2.744-2.91z" fill="url(#appaint2_linear)" mask="url(#apb)"/></g><defs><linearGradient id="appaint0_linear" x1="0" y1="0" x2="0" y2="50" gradientUnits="userSpaceOnUse"><stop stop-color="#00BDFF"/><stop offset=".968" stop-color="#0072FF"/></linearGradient><linearGradient id="appaint2_linear" x1="30.255" y1="18.25" x2="21.363" y2="20.841" gradientUnits="userSpaceOnUse"><stop stop-color="#0076FE"/><stop offset="1" stop-color="#fff" stop-opacity=".01"/></linearGradient><radialGradient id="appaint1_radial" cx="0" cy="0" r="1" gradientUnits="userSpaceOnUse" gradientTransform="rotate(70.334 7.734 1.316) scale(26.5486 23.4995)"><stop stop-color="#7EB8FF" stop-opacity=".5"/><stop offset="1" stop-color="#0072FF" stop-opacity=".01"/></radialGradient></defs></svg>