<?xml version="1.0" encoding="utf-8"?><svg width="50" height="50" fill="none" xmlns="http://www.w3.org/2000/svg" viewBox="0 0 50 50"><path fill-rule="evenodd" clip-rule="evenodd" d="M25 50c13.807 0 25-11.193 25-25S38.807 0 25 0 0 11.193 0 25s11.193 25 25 25z" fill="url(#aqpaint0_linear)"/><path fill-rule="evenodd" clip-rule="evenodd" d="M25 50c13.807 0 25-11.193 25-25S38.807 0 25 0 0 11.193 0 25s11.193 25 25 25z" fill="url(#aqpaint1_radial)"/><mask id="aqa" maskUnits="userSpaceOnUse" x="0" y="0" width="50" height="50"><path fill-rule="evenodd" clip-rule="evenodd" d="M25 50c13.807 0 25-11.193 25-25S38.807 0 25 0 0 11.193 0 25s11.193 25 25 25z" fill="#fff"/><path fill-rule="evenodd" clip-rule="evenodd" d="M25 50c13.807 0 25-11.193 25-25S38.807 0 25 0 0 11.193 0 25s11.193 25 25 25z" stroke="#fff"/></mask><g mask="url(#aqa)"><mask id="aqb" maskUnits="userSpaceOnUse" x="8" y="20" width="34" height="10" fill="#000"><path fill="#fff" d="M8 20h34v10H8z"/><path fill-rule="evenodd" clip-rule="evenodd" d="M13 28a3 3 0 100-6 3 3 0 000 6zm12 0a3 3 0 100-6 3 3 0 000 6zm15-3a3 3 0 11-6 0 3 3 0 016 0z"/></mask><path fill-rule="evenodd" clip-rule="evenodd" d="M13 28a3 3 0 100-6 3 3 0 000 6zm12 0a3 3 0 100-6 3 3 0 000 6zm15-3a3 3 0 11-6 0 3 3 0 016 0z" fill="#fff"/><path d="M14 25a1 1 0 01-1 1v4a5 5 0 005-5h-4zm-1-1a1 1 0 011 1h4a5 5 0 00-5-5v4zm-1 1a1 1 0 011-1v-4a5 5 0 00-5 5h4zm1 1a1 1 0 01-1-1H8a5 5 0 005 5v-4zm13-1a1 1 0 01-1 1v4a5 5 0 005-5h-4zm-1-1a1 1 0 011 1h4a5 5 0 00-5-5v4zm-1 1a1 1 0 011-1v-4a5 5 0 00-5 5h4zm1 1a1 1 0 01-1-1h-4a5 5 0 005 5v-4zm12 4a5 5 0 005-5h-4a1 1 0 01-1 1v4zm-5-5a5 5 0 005 5v-4a1 1 0 01-1-1h-4zm5-5a5 5 0 00-5 5h4a1 1 0 011-1v-4zm5 5a5 5 0 00-5-5v4a1 1 0 011 1h4z" fill="url(#aqpaint2_linear)" mask="url(#aqb)"/></g><defs><linearGradient id="aqpaint0_linear" x1="50.93" y1="71.083" x2="72.41" y2="8.696" gradientUnits="userSpaceOnUse"><stop stop-color="#0C1723"/><stop offset="1" stop-color="#18222E"/></linearGradient><linearGradient id="aqpaint2_linear" x1="16.407" y1="13.347" x2="15.877" y2="21.54" gradientUnits="userSpaceOnUse"><stop stop-color="#0F1A26"/><stop offset="1" stop-color="#fff" stop-opacity=".01"/></linearGradient><radialGradient id="aqpaint1_radial" cx="0" cy="0" r="1" gradientUnits="userSpaceOnUse" gradientTransform="rotate(20.004 -13.681 138.02) scale(32.6094 25.3593)"><stop stop-color="#5B616D" stop-opacity=".559"/><stop offset="1" stop-color="#9297A2" stop-opacity=".01"/></radialGradient></defs></svg>