<?xml version="1.0" encoding="utf-8"?><svg width="50" height="50" fill="none" xmlns="http://www.w3.org/2000/svg" viewBox="0 0 50 50"><path fill-rule="evenodd" clip-rule="evenodd" d="M25 50c13.807 0 25-11.193 25-25S38.807 0 25 0 0 11.193 0 25s11.193 25 25 25z" fill="url(#arpaint0_linear)"/><path fill-rule="evenodd" clip-rule="evenodd" d="M25 50c13.807 0 25-11.193 25-25S38.807 0 25 0 0 11.193 0 25s11.193 25 25 25z" fill="url(#arpaint1_radial)"/><mask id="ara" maskUnits="userSpaceOnUse" x="0" y="0" width="50" height="50"><path fill-rule="evenodd" clip-rule="evenodd" d="M25 50c13.807 0 25-11.193 25-25S38.807 0 25 0 0 11.193 0 25s11.193 25 25 25z" fill="#fff"/><path fill-rule="evenodd" clip-rule="evenodd" d="M25 50c13.807 0 25-11.193 25-25S38.807 0 25 0 0 11.193 0 25s11.193 25 25 25z" stroke="#fff"/></mask><g mask="url(#ara)"><path d="M13.717 23.561h0l-.003.004c-1.108 1.402-.888 3.51.389 4.74l.008.008.008.008 6.326 5.82.009.008.008.008a3.105 3.105 0 002.535.75 3.163 3.163 0 002.08-1.142L37.01 20.258c1.22-1.279.907-3.216-.341-4.336h0c-1.253-1.124-3.257-1.315-4.488-.045l-.015.015-.014.016-9.927 11.15-3.96-3.691c-1.305-1.254-3.37-1.278-4.547.194z" fill="#fff" stroke="url(#arpaint2_linear)" stroke-width="2"/></g><defs><linearGradient id="arpaint0_linear" x1="50" y1="50" x2="50" y2="0" gradientUnits="userSpaceOnUse"><stop stop-color="#FCB047"/><stop offset="1" stop-color="#FAD200"/></linearGradient><linearGradient id="arpaint2_linear" x1="31.084" y1="17.429" x2="14.573" y2="29.896" gradientUnits="userSpaceOnUse"><stop stop-color="#FCB243"/><stop offset="1" stop-color="#fff" stop-opacity=".01"/></linearGradient><radialGradient id="arpaint1_radial" cx="0" cy="0" r="1" gradientUnits="userSpaceOnUse" gradientTransform="rotate(20.004 -34.099 119.269) scale(34.8177 27.0767)"><stop offset=".032" stop-color="#fff" stop-opacity=".559"/><stop offset="1" stop-color="#FAD200" stop-opacity=".01"/></radialGradient></defs></svg>