<?xml version="1.0" encoding="utf-8"?><svg width="36" height="36" xmlns="http://www.w3.org/2000/svg" viewBox="0 0 36 36"><path d="M18 0c-4.888 0-5.5.02-7.42.109C8.664.196 7.355.5 6.21.945a8.83 8.83 0 00-3.189 2.076A8.84 8.84 0 00.945 6.21C.5 7.353.195 8.662.11 10.579.022 12.498 0 13.11 0 17.998c0 4.89.022 5.503.109 7.423.087 1.916.391 3.225.836 4.37a8.84 8.84 0 002.076 3.187c1 1 2.005 1.617 3.19 2.076 1.144.445 2.453.75 4.369.836 1.92.09 2.532.109 7.42.109s5.5-.02 7.42-.109c1.916-.087 3.225-.391 4.37-.836a8.805 8.805 0 003.189-2.076c1-1 1.615-2.005 2.076-3.188.445-1.144.75-2.453.836-4.37.087-1.92.109-2.532.109-7.422 0-4.888-.022-5.5-.109-7.42-.087-1.917-.391-3.226-.836-4.37a8.84 8.84 0 00-2.076-3.188 8.83 8.83 0 00-3.19-2.076C28.646.5 27.337.195 25.42.11 23.5.019 22.888 0 18 0m.725 3.243c4.145.002 4.75.022 6.549.105 1.754.08 2.707.373 3.341.62a5.57 5.57 0 012.07 1.347 5.588 5.588 0 011.347 2.068c.245.635.54 1.588.619 3.344.08 1.748.101 2.37.104 6.21v2.124c-.003 3.843-.024 4.464-.104 6.212-.08 1.756-.374 2.71-.62 3.344a5.588 5.588 0 01-1.346 2.068 5.57 5.57 0 01-2.07 1.347c-.634.247-1.587.54-3.341.62-1.798.083-2.404.103-6.55.105h-1.449c-4.145-.002-4.75-.022-6.549-.105-1.754-.08-2.707-.373-3.341-.62a5.57 5.57 0 01-2.07-1.347 5.588 5.588 0 01-1.347-2.068c-.245-.635-.54-1.588-.619-3.344-.08-1.748-.101-2.37-.104-6.212v-2.124c.003-3.84.024-4.462.104-6.21.08-1.756.374-2.71.62-3.344a5.588 5.588 0 011.346-2.068 5.57 5.57 0 012.07-1.347c.634-.247 1.587-.54 3.341-.62 1.798-.083 2.404-.103 6.55-.105h1.449zM18 8.757a9.243 9.243 0 100 18.484 9.243 9.243 0 000-18.484zM18 12a6 6 0 110 12.002A6 6 0 0118 12zm9.609-5.768a2.16 2.16 0 10-.003 4.32 2.16 2.16 0 00.003-4.32z" fill="#FFF" fill-rule="evenodd"/></svg>