<?xml version="1.0" encoding="utf-8"?><svg width="36" height="36" fill="none" xmlns="http://www.w3.org/2000/svg" viewBox="0 0 36 36"><path fill-rule="evenodd" clip-rule="evenodd" d="M10.58.109C12.5.019 13.113 0 18 0c4.887 0 5.5.02 7.42.109 1.916.087 3.225.391 4.37.836a8.83 8.83 0 013.189 2.076c1 1 1.615 2.005 2.076 3.188.445 1.144.75 2.453.836 4.37.087 1.92.109 2.532.109 7.42 0 4.89-.022 5.503-.109 7.423-.087 1.916-.391 3.225-.836 4.37a8.84 8.84 0 01-2.076 3.187c-1 1-2.005 1.617-3.19 2.076-1.144.445-2.453.75-4.369.836-1.92.09-2.533.109-7.42.109-4.887 0-5.5-.02-7.42-.109-1.916-.087-3.225-.391-4.37-.836a8.806 8.806 0 01-3.189-2.076A8.84 8.84 0 01.945 29.79C.5 28.647.195 27.338.11 25.421.022 23.502 0 22.89 0 18c0-4.888.022-5.5.109-7.42.087-1.917.391-3.226.836-4.37A8.84 8.84 0 013.021 3.02c1-1 2.005-1.615 3.19-2.076C7.354.5 8.663.195 10.58.11zm14.694 3.239c-1.898-.087-2.468-.105-7.274-.105s-5.376.018-7.274.105c-1.754.08-2.707.373-3.341.62a5.57 5.57 0 00-2.07 1.347 5.588 5.588 0 00-1.347 2.068c-.245.635-.54 1.588-.619 3.344-.087 1.898-.104 2.467-.104 7.272 0 4.807.017 5.376.104 7.274.08 1.756.374 2.71.62 3.344.325.838.717 1.44 1.346 2.068.63.63 1.23 1.02 2.07 1.347.634.247 1.587.54 3.341.62 1.898.087 2.467.105 7.274.105 4.806 0 5.376-.017 7.274-.104 1.754-.082 2.707-.374 3.341-.621a5.569 5.569 0 002.07-1.347 5.588 5.588 0 001.347-2.068c.245-.635.54-1.588.619-3.344.087-1.898.104-2.467.104-7.274 0-4.805-.017-5.374-.104-7.272-.08-1.756-.374-2.71-.62-3.344a5.59 5.59 0 00-1.346-2.068 5.57 5.57 0 00-2.07-1.347c-.634-.247-1.587-.54-3.341-.62zM18 24a6 6 0 11.002-12A6 6 0 0118 24z" fill="#fff"/></svg>