<?xml version="1.0" encoding="utf-8"?><svg width="90" height="90" fill="none" xmlns="http://www.w3.org/2000/svg" viewBox="0 0 90 90"><path fill-rule="evenodd" clip-rule="evenodd" d="M45 90c24.853 0 45-20.147 45-45S69.853 0 45 0 0 20.147 0 45s20.147 45 45 45z" fill="url(#spaint0_linear)"/><path fill-rule="evenodd" clip-rule="evenodd" d="M69.785 0h-49.57C9.05 0 0 9.05 0 20.215v49.57C0 80.95 9.05 90 20.215 90h49.57C80.95 90 90 80.95 90 69.785v-49.57C90 9.05 80.95 0 69.785 0z" fill="url(#spaint1_linear)"/><path fill-rule="evenodd" clip-rule="evenodd" d="M68.755 63.713a47.11 47.11 0 00-5.398-11.315c-2.679-4.052-6.189-7.725-10.653-9.781-4.462-2.09-9.777-2.256-14.353-.423-4.5 1.764-8.129 5.223-10.897 9.11-2.61 3.703-4.62 7.82-6.057 12.114-.356.976-.356 2.096.12 3.032.619 1.317 2.068 2.177 3.522 2.097 1.48-.054 2.88-1.073 3.346-2.486 1.185-3.6 2.825-7.067 4.986-10.19 1.765-2.512 3.93-4.855 6.695-6.27a10.827 10.827 0 018.225-.706c2.747.89 5.038 2.806 6.873 4.988 2.62 3.129 4.529 6.798 5.967 10.603.378.932.535 1.993 1.23 2.766.902 1.066 2.432 1.548 3.78 1.174 1.996-.47 3.282-2.766 2.614-4.713z" fill="url(#spaint2_linear)"/><path fill-rule="evenodd" clip-rule="evenodd" d="M65.2 20.768a3.733 3.733 0 00-3.734 3.733v40.35a3.733 3.733 0 107.467 0v-40.35a3.733 3.733 0 00-3.734-3.733z" fill="url(#spaint3_linear)"/><path fill-rule="evenodd" clip-rule="evenodd" d="M24.879 20.768a3.734 3.734 0 00-3.733 3.733v40.35a3.733 3.733 0 007.466 0v-40.35a3.733 3.733 0 00-3.733-3.733z" fill="url(#spaint4_linear)"/><path fill-rule="evenodd" clip-rule="evenodd" d="M68.56 22.872c-.617-1.317-2.067-2.177-3.52-2.096-1.48.054-2.88 1.073-3.347 2.486-1.185 3.6-2.824 7.067-4.986 10.189-1.765 2.513-3.929 4.856-6.695 6.271a10.827 10.827 0 01-8.225.706c-2.746-.89-5.038-2.806-6.872-4.988-2.62-3.13-4.53-6.798-5.967-10.603-.379-.932-.535-1.994-1.23-2.766-.903-1.067-2.432-1.548-3.78-1.174-1.997.47-3.282 2.766-2.615 4.712a47.11 47.11 0 005.398 11.316c2.68 4.052 6.19 7.725 10.653 9.781 4.462 2.09 9.778 2.255 14.354.423 4.5-1.764 8.128-5.223 10.897-9.111 2.61-3.703 4.619-7.82 6.057-12.113.356-.976.356-2.096-.121-3.033z" fill="#fff"/><defs><linearGradient id="spaint0_linear" x1="90" y1="90" x2="90" y2="0" gradientUnits="userSpaceOnUse"><stop stop-color="#FCB047"/><stop offset="1" stop-color="#FAD200"/></linearGradient><linearGradient id="spaint1_linear" x1="90" y1="90" x2="90" y2="0" gradientUnits="userSpaceOnUse"><stop stop-color="#FCB047"/><stop offset="1" stop-color="#FAD200"/></linearGradient><linearGradient id="spaint2_linear" x1="68.933" y1="68.552" x2="68.933" y2="40.928" gradientUnits="userSpaceOnUse"><stop stop-color="#FAD200"/><stop offset="1" stop-color="#fff" stop-opacity=".01"/></linearGradient><linearGradient id="spaint3_linear" x1="68.933" y1="68.585" x2="68.933" y2="20.768" gradientUnits="userSpaceOnUse"><stop stop-color="#fff"/><stop offset="1" stop-color="#FAD200"/></linearGradient><linearGradient id="spaint4_linear" x1="28.612" y1="68.585" x2="28.612" y2="20.768" gradientUnits="userSpaceOnUse"><stop stop-color="#fff"/><stop offset="1" stop-color="#FAD200"/></linearGradient></defs></svg>