<?xml version="1.0" encoding="utf-8"?><svg width="1820" height="1820" fill="none" xmlns="http://www.w3.org/2000/svg" viewBox="0 0 1820 1820"><path opacity=".1" fill-rule="evenodd" clip-rule="evenodd" d="M0 909.9C0 407.433 407.433 0 909.9 0c502.47 0 909.9 407.433 909.9 909.9 0 502.47-407.43 909.9-909.9 909.9C407.433 1819.8 0 1412.37 0 909.9zM1263.35 73.399C1151.33 26.084 1032.43 2.022 909.9 2.022c-122.533 0-241.427 24.062-353.446 71.377-107.974 45.697-205.233 111.21-288.539 194.516-83.306 83.306-148.819 180.362-194.516 288.539C26.084 668.473 2.022 787.367 2.022 909.9c0 122.53 24.062 241.43 71.377 353.45 45.697 107.97 111.21 205.23 194.516 288.53 83.306 83.31 180.362 148.82 288.539 194.52 112.019 47.32 230.913 71.38 353.446 71.38 122.53 0 241.43-24.06 353.45-71.38 107.97-45.7 205.23-111.21 288.53-194.52 83.31-83.3 148.82-180.36 194.52-288.53 47.32-112.02 71.38-230.92 71.38-353.45 0-122.533-24.06-241.427-71.38-353.446-45.7-107.974-111.21-205.233-194.52-288.539-83.3-83.306-180.36-148.819-288.53-194.516z" fill="#FCB047"/><path opacity=".2" fill-rule="evenodd" clip-rule="evenodd" d="M227.475 909.9c0-376.901 305.524-682.425 682.425-682.425 376.9 0 682.42 305.524 682.42 682.425 0 376.9-305.52 682.42-682.42 682.42-376.901 0-682.425-305.52-682.425-682.42zm947.305-627.022c-83.91-35.385-173.08-53.381-264.88-53.381-91.799 0-180.969 17.996-264.882 53.381-81.083 34.172-153.875 83.306-216.354 145.786-62.48 62.48-111.615 135.272-145.787 216.354-35.385 83.913-53.38 173.083-53.38 264.882 0 91.8 17.995 180.97 53.38 264.88 34.172 81.08 83.307 153.88 145.787 216.36 62.479 62.48 135.271 111.61 216.354 145.78 83.913 35.39 173.083 53.38 264.882 53.38 91.8 0 180.97-17.99 264.88-53.38 81.08-34.17 153.88-83.3 216.36-145.78 62.48-62.48 111.61-135.28 145.78-216.36 35.39-83.91 53.38-173.08 53.38-264.88 0-91.799-17.99-180.969-53.38-264.882-34.17-81.082-83.3-153.874-145.78-216.354-62.48-62.48-135.28-111.614-216.36-145.786z" fill="#FCB047"/><path opacity=".4" fill-rule="evenodd" clip-rule="evenodd" d="M495.39 909.9c0-228.891 185.619-414.51 414.51-414.51 228.89 0 414.51 185.619 414.51 414.51 0 228.89-185.62 414.51-414.51 414.51-228.891 0-414.51-185.62-414.51-414.51zm575.06-380.136c-50.76-21.433-104.945-32.352-160.55-32.352-55.605 0-109.795 10.919-160.547 32.352-48.933 20.826-93.214 50.55-131.026 88.361-37.811 37.812-67.535 81.891-88.361 131.026-21.433 50.752-32.352 104.942-32.352 160.547 0 55.605 10.919 109.792 32.352 160.542 20.826 48.94 50.55 93.22 88.361 131.03 37.812 37.81 81.891 67.53 131.026 88.36 50.752 21.43 104.942 32.35 160.547 32.35 55.605 0 109.79-10.92 160.55-32.35 48.93-20.83 93.21-50.55 131.02-88.36 37.81-37.81 67.54-81.89 88.36-131.03 21.44-50.75 32.36-104.937 32.36-160.542 0-55.605-10.92-109.795-32.36-160.547-20.82-48.933-50.55-93.214-88.36-131.026-37.81-37.811-81.89-67.535-131.02-88.361z" fill="#FCB047"/><path fill-rule="evenodd" clip-rule="evenodd" d="M910 1180c149.12 0 270-120.88 270-270 0-149.117-120.88-270-270-270-149.117 0-270 120.883-270 270 0 149.12 120.883 270 270 270z" fill="url(#opaint0_linear)"/><path fill-rule="evenodd" clip-rule="evenodd" d="M910 1180c149.12 0 270-120.88 270-270 0-149.117-120.88-270-270-270-149.117 0-270 120.883-270 270 0 149.12 120.883 270 270 270z" fill="url(#opaint1_radial)"/><mask id="oa" maskUnits="userSpaceOnUse" x="640" y="640" width="540" height="540"><path fill-rule="evenodd" clip-rule="evenodd" d="M910 1180c149.12 0 270-120.88 270-270 0-149.117-120.88-270-270-270-149.117 0-270 120.883-270 270 0 149.12 120.883 270 270 270z" fill="#fff"/><path fill-rule="evenodd" clip-rule="evenodd" d="M910 1180c149.12 0 270-120.88 270-270 0-149.117-120.88-270-270-270-149.117 0-270 120.883-270 270 0 149.12 120.883 270 270 270z" stroke="#fff"/></mask><g mask="url(#oa)" fill-rule="evenodd" clip-rule="evenodd"><path d="M1052.53 1025.18a283.944 283.944 0 00-32.5-68.131c-16.13-24.395-37.267-46.511-64.144-58.891-26.865-12.581-58.867-13.58-86.42-2.548-27.094 10.626-48.941 31.447-65.61 54.858-15.711 22.291-27.808 47.077-36.466 72.932-2.145 5.88-2.145 12.62.728 18.26 3.722 7.93 12.448 13.1 21.2 12.62 8.914-.33 17.343-6.46 20.149-14.97 7.133-21.67 17.005-42.547 30.019-61.345 10.628-15.13 23.656-29.236 40.311-37.759 15.091-7.875 33.311-9.453 49.521-4.248 16.534 5.354 30.33 16.897 41.376 30.032 15.778 18.839 27.268 40.93 35.926 63.84 2.28 5.61 3.22 12 7.4 16.65 5.44 6.42 14.65 9.32 22.77 7.07 12.02-2.83 19.76-16.65 15.74-28.37" fill="url(#opaint2_linear)"/><path d="M1031.12 766.609c-12.42 0-22.48 10.064-22.48 22.478v242.943c0 12.42 10.06 22.48 22.48 22.48 12.41 0 22.48-10.06 22.48-22.48V789.087c0-12.414-10.07-22.478-22.48-22.478" fill="url(#opaint3_linear)"/><path d="M788.355 766.609c-12.414 0-22.478 10.064-22.478 22.478v242.943c0 12.42 10.064 22.48 22.478 22.48 12.414 0 22.478-10.06 22.478-22.48V789.087c0-12.414-10.064-22.478-22.478-22.478" fill="url(#opaint4_linear)"/><path d="M1051.36 779.281c-3.73-7.929-12.45-13.108-21.2-12.622-8.92.324-17.35 6.459-20.15 14.968-7.14 21.672-17.009 42.548-30.023 61.346-10.627 15.13-23.655 29.236-40.31 37.759-15.091 7.875-33.311 9.453-49.521 4.248-16.535-5.354-30.331-16.897-41.376-30.032-15.779-18.84-27.269-40.928-35.927-63.84-2.279-5.61-3.224-12.002-7.404-16.654-5.435-6.42-14.646-9.319-22.765-7.067-12.016 2.832-19.757 16.654-15.738 28.373a283.63 283.63 0 0032.501 68.129c16.13 24.395 37.263 46.511 64.141 58.89 26.864 12.582 58.867 13.58 86.419 2.549 27.094-10.626 48.942-31.448 65.613-54.858 15.71-22.292 27.81-47.078 36.46-72.929 2.15-5.88 2.15-12.623-.72-18.26" fill="#fff"/></g><defs><linearGradient id="opaint0_linear" x1="1180" y1="1180" x2="1180" y2="640.003" gradientUnits="userSpaceOnUse"><stop stop-color="#FCB047"/><stop offset="1" stop-color="#FAD200"/></linearGradient><linearGradient id="opaint2_linear" x1="1053.59" y1="1054.31" x2="1053.59" y2="887.988" gradientUnits="userSpaceOnUse"><stop stop-color="#FAD200"/><stop offset="1" stop-color="#fff" stop-opacity=".01"/></linearGradient><linearGradient id="opaint3_linear" x1="1053.59" y1="1054.51" x2="1053.59" y2="766.611" gradientUnits="userSpaceOnUse"><stop stop-color="#fff"/><stop offset="1" stop-color="#FAD200"/></linearGradient><linearGradient id="opaint4_linear" x1="810.831" y1="1054.51" x2="810.831" y2="766.611" gradientUnits="userSpaceOnUse"><stop stop-color="#fff"/><stop offset="1" stop-color="#FAD200"/></linearGradient><radialGradient id="opaint1_radial" cx="0" cy="0" r="1" gradientUnits="userSpaceOnUse" gradientTransform="matrix(342.16787 124.56394 -96.86976 266.09402 1079.62 654.051)"><stop stop-color="#fff" stop-opacity=".559"/><stop offset="1" stop-color="#FAD200" stop-opacity=".01"/></radialGradient></defs></svg>