<?xml version="1.0" encoding="utf-8"?><svg width="190" height="276" fill="none" xmlns="http://www.w3.org/2000/svg" viewBox="0 0 190 276"><g filter="url(#ayfilter0_d)"><path fill-rule="evenodd" clip-rule="evenodd" d="M50 30.999h37.961l5.267-5.267c.49-.489 1.13-.733 1.772-.732a2.493 2.493 0 011.772.732L102.039 31H140c8.284 0 15 6.716 15 15v170c0 8.284-6.716 15-15 15H50c-8.284 0-15-6.716-15-15v-170c0-8.284 6.716-15 15-15z" fill="#fff"/></g><g filter="url(#ayfilter1_d)"><path d="M35 130.999h120v85c0 8.284-6.716 15-15 15H50c-8.284 0-15-6.716-15-15v-85z" fill="#fff"/></g><g filter="url(#ayfilter2_d)"><path d="M35 45.999c0-8.284 6.716-15 15-15h90c8.284 0 15 6.716 15 15v85H35v-85z" fill="#fff"/></g><defs><filter id="ayfilter0_d" x="0" y="0" width="190" height="275.999" filterUnits="userSpaceOnUse" color-interpolation-filters="sRGB"><feFlood flood-opacity="0" result="BackgroundImageFix"/><feColorMatrix in="SourceAlpha" values="0 0 0 0 0 0 0 0 0 0 0 0 0 0 0 0 0 0 127 0"/><feOffset dy="10"/><feGaussianBlur stdDeviation="17.5"/><feColorMatrix values="0 0 0 0 0 0 0 0 0 0 0 0 0 0 0 0 0 0 0.202502 0"/><feBlend in2="BackgroundImageFix" result="effect1_dropShadow"/><feBlend in="SourceGraphic" in2="effect1_dropShadow" result="shape"/></filter><filter id="ayfilter1_d" x="35" y="130.999" width="120" height="102" filterUnits="userSpaceOnUse" color-interpolation-filters="sRGB"><feFlood flood-opacity="0" result="BackgroundImageFix"/><feColorMatrix in="SourceAlpha" values="0 0 0 0 0 0 0 0 0 0 0 0 0 0 0 0 0 0 127 0"/><feOffset dy="2"/><feColorMatrix values="0 0 0 0 1 0 0 0 0 1 0 0 0 0 1 0 0 0 0.0996943 0"/><feBlend in2="BackgroundImageFix" result="effect1_dropShadow"/><feBlend in="SourceGraphic" in2="effect1_dropShadow" result="shape"/></filter><filter id="ayfilter2_d" x="35" y="30.999" width="120" height="102" filterUnits="userSpaceOnUse" color-interpolation-filters="sRGB"><feFlood flood-opacity="0" result="BackgroundImageFix"/><feColorMatrix in="SourceAlpha" values="0 0 0 0 0 0 0 0 0 0 0 0 0 0 0 0 0 0 127 0"/><feOffset dy="2"/><feColorMatrix values="0 0 0 0 0 0 0 0 0 0 0 0 0 0 0 0 0 0 0.0996943 0"/><feBlend in2="BackgroundImageFix" result="effect1_dropShadow"/><feBlend in="SourceGraphic" in2="effect1_dropShadow" result="shape"/></filter></defs></svg>