<?xml version="1.0" encoding="utf-8"?><svg width="200" height="63" fill="none" xmlns="http://www.w3.org/2000/svg" viewBox="0 0 200 63"><path fill-rule="evenodd" clip-rule="evenodd" d="M159.745 10c-2.079 0-3.762 1.723-3.762 3.846v31.538c0 2.125 1.683 3.846 3.762 3.846 2.078 0 3.761-1.721 3.761-3.846V13.846c0-2.123-1.683-3.846-3.761-3.846m-23.326 31.538c-5.195 0-9.406-4.477-9.406-9.999 0-5.524 4.211-10 9.406-10 5.194 0 9.406 4.476 9.406 10 0 5.522-4.212 9.998-9.406 9.998m0-27.69c-9.351 0-16.931 7.92-16.931 17.692 0 .176.003.351.008.527-.003.08-.007.161-.007.242v26.844c0 2.126 1.684 3.848 3.762 3.848 2.078 0 3.762-1.722 3.762-3.848V46.251a16.342 16.342 0 009.406 2.979c9.351 0 16.931-7.921 16.931-17.691 0-9.771-7.58-17.693-16.931-17.693m46.651 27.692c-5.194 0-9.405-4.477-9.405-9.999 0-5.524 4.211-10 9.405-10 5.195 0 9.407 4.476 9.407 10 0 5.522-4.212 9.998-9.407 9.998m0-27.69c-9.35 0-16.93 7.92-16.93 17.692 0 9.77 7.58 17.69 16.93 17.69 9.352 0 16.93-7.92 16.93-17.69 0-9.771-7.578-17.693-16.93-17.693M159.745 0c-2.079 0-3.762 1.723-3.762 3.846 0 2.126 1.683 3.846 3.762 3.846 2.078 0 3.761-1.72 3.761-3.846 0-2.123-1.683-3.846-3.761-3.846m-46.652 10c-2.079 0-3.762 1.723-3.762 3.846v31.538c0 2.125 1.683 3.846 3.762 3.846 2.078 0 3.761-1.721 3.761-3.846V13.846c0-2.123-1.683-3.846-3.761-3.846m-45.372 3.846c-.057 0-.112 0-.167.002a8.047 8.047 0 00-1.017.041c-3.672.264-7.022 1.755-9.678 4.079-2.572 2.04-4.762 4.62-6.672 7.298a63.878 63.878 0 00-2.032 3.111V3.954a3.739 3.739 0 00-.375-1.786c-.2-.437-.49-.827-.838-1.15-.017-.015-.033-.032-.05-.046L46.86.943A3.697 3.697 0 0044.394 0c-1.774 0-3.26 1.255-3.657 2.944-1.183 3.575-2.797 7.015-4.902 10.123-1.778 2.588-3.958 5.002-6.746 6.46-2.525 1.349-5.575 1.619-8.289.727-2.767-.915-5.077-2.891-6.925-5.138-2.642-3.223-4.565-7.004-6.013-10.923-.212-.532-.355-1.106-.559-1.647a4.09 4.09 0 00-.23-.523 3.197 3.197 0 00-.451-.68 3.588 3.588 0 00-.859-.751A3.686 3.686 0 003.762 0C1.697 0 .022 1.7 0 3.806V45.384c0 2.125 1.683 3.846 3.762 3.846 2.078 0 3.761-1.721 3.761-3.846V19.33c2.399 3.073 5.322 5.739 8.83 7.39 4.497 2.154 9.854 2.325 14.466.436 3.926-1.575 7.195-4.458 9.813-7.803v26.03c0 1.018.387 1.944 1.018 2.632.314.35.692.64 1.124.84.07.034.141.067.215.097.446.194.921.283 1.398.277h.007c1.821 0 3.34-1.323 3.688-3.079 1.627-4.549 3.618-8.969 6.065-13.117 1.729-2.896 3.695-5.681 6.14-7.987 1.64-1.519 3.544-2.855 5.734-3.34.51-.127 1.043-.133 1.57-.168h.13c5.193 0 9.405 4.476 9.405 10 0 5.522-4.212 9.998-9.405 9.998-4.24 0-7.824-2.98-8.999-7.079-1.39 1.653-3.577 4.628-4.972 7.076 3.05 4.647 8.169 7.696 13.97 7.696 9.35 0 16.93-7.921 16.93-17.691 0-9.771-7.58-17.693-16.93-17.693m36.929 24.117c-1.691-.94-4.026-.254-4.942 1.484-.428.799-.883 1.727-1.79 2.032-.821.242-1.528-.452-1.95-1.092-.94-1.489-1.153-3.32-1.171-5.056V17.692h1.141c2.077 0 3.762-1.723 3.762-3.847 0-2.123-1.685-3.846-3.761-3.846h-1.142V5.544c-.027-1.108.145-2.29-.354-3.32-.74-1.698-2.775-2.63-4.503-2.048-1.573.47-2.718 2.085-2.657 3.766 0 2.018.002 4.039 0 6.058h-1.126c-2.079 0-3.764 1.723-3.764 3.846 0 2.124 1.685 3.847 3.764 3.847h1.126V35.34c.005 2.58.407 5.2 1.474 7.554.968 2.161 2.536 4.09 4.601 5.22 2.136 1.21 4.769 1.456 7.072.619 2.762-.967 4.924-3.32 6.042-6.04.667-1.754-.175-3.91-1.822-4.73M113.093 0c-2.079 0-3.762 1.723-3.762 3.846 0 2.126 1.683 3.846 3.762 3.846 2.078 0 3.761-1.72 3.761-3.846 0-2.123-1.683-3.846-3.761-3.846" fill="#000"/></svg>