<?xml version="1.0" encoding="utf-8"?><svg width="1820" height="1820" fill="none" xmlns="http://www.w3.org/2000/svg" viewBox="0 0 1820 1820"><path opacity=".1" fill-rule="evenodd" clip-rule="evenodd" d="M0 909.9C0 407.433 407.433 0 909.9 0c502.47 0 909.9 407.433 909.9 909.9 0 502.47-407.43 909.9-909.9 909.9C407.433 1819.8 0 1412.37 0 909.9zM1263.35 73.399C1151.33 26.084 1032.43 2.022 909.9 2.022c-122.533 0-241.427 24.062-353.446 71.377-107.974 45.697-205.233 111.21-288.539 194.516-83.306 83.306-148.819 180.362-194.516 288.539C26.084 668.473 2.022 787.367 2.022 909.9c0 122.53 24.062 241.43 71.377 353.45 45.697 107.97 111.21 205.23 194.516 288.53 83.306 83.31 180.362 148.82 288.539 194.52 112.019 47.32 230.913 71.38 353.446 71.38 122.53 0 241.43-24.06 353.45-71.38 107.97-45.7 205.23-111.21 288.53-194.52 83.31-83.3 148.82-180.36 194.52-288.53 47.32-112.02 71.38-230.92 71.38-353.45 0-122.533-24.06-241.427-71.38-353.446-45.7-107.974-111.21-205.233-194.52-288.539-83.3-83.306-180.36-148.819-288.53-194.516z" fill="#FCB047"/></svg>