<?xml version="1.0" encoding="utf-8"?><svg viewBox="0 0 1820 1820" xmlns="http://www.w3.org/2000/svg" xmlns:xlink="http://www.w3.org/1999/xlink"><style>:root>svg{display:none}:root>svg:target{display:block}</style><svg fill="none" viewBox="0 0 24 37" id="Arr_for_link" xmlns="http://www.w3.org/2000/svg"><path fill-rule="evenodd" clip-rule="evenodd" d="M12 0a2 2 0 00-2 2v27.878l-7.034-7.329a1.69 1.69 0 00-2.432-.06 1.795 1.795 0 00-.06 2.493s10.27 10.883 10.3 10.913c.709.695 1.834.67 2.512-.058l10.237-10.855a1.795 1.795 0 00-.055-2.493 1.69 1.69 0 00-2.431.056L14 29.879V2a2 2 0 00-2-2z" fill="#000"/></svg><svg fill="none" viewBox="0 0 24 37" id="Arr_for_link_white" xmlns="http://www.w3.org/2000/svg"><path fill-rule="evenodd" clip-rule="evenodd" d="M12 0a2 2 0 00-2 2v27.878l-7.034-7.329a1.69 1.69 0 00-2.432-.06 1.795 1.795 0 00-.06 2.493s10.27 10.883 10.3 10.913c.709.695 1.834.67 2.512-.058l10.237-10.855a1.795 1.795 0 00-.055-2.493 1.69 1.69 0 00-2.431.056L14 29.879V2a2 2 0 00-2-2z" fill="#fff"/></svg><svg fill="none" viewBox="0 0 25 15" id="Arr_for_select" xmlns="http://www.w3.org/2000/svg"><path fill-rule="evenodd" clip-rule="evenodd" d="M4.358.743a2.5 2.5 0 00-3.535 0L.735.831a2.5 2.5 0 000 3.535l9.508 9.508c.489.489 1.13.733 1.771.732a2.493 2.493 0 001.772-.732l9.507-9.508a2.5 2.5 0 000-3.535l-.087-.088a2.5 2.5 0 00-3.536 0l-7.656 7.656L4.358.743z" fill="#000"/></svg><svg fill="none" viewBox="0 0 25 15" id="Arr_for_select__white" xmlns="http://www.w3.org/2000/svg"><path fill-rule="evenodd" clip-rule="evenodd" d="M4.358.743a2.5 2.5 0 00-3.535 0L.735.831a2.5 2.5 0 000 3.535l9.508 9.508c.489.489 1.13.733 1.771.732a2.493 2.493 0 001.772-.732l9.507-9.508a2.5 2.5 0 000-3.535l-.087-.088a2.5 2.5 0 00-3.536 0l-7.656 7.656L4.358.743z" fill="#fff"/></svg><svg fill="none" viewBox="0 0 120 206" id="Check_lang_bg" xmlns="http://www.w3.org/2000/svg"><g filter="url(#efilter0_d)"><path fill-rule="evenodd" clip-rule="evenodd" d="M15 6h37.962L58.227.733C58.718.244 59.358 0 60 .001a2.492 2.492 0 011.772.732L67.039 6H105c8.284 0 15 6.716 15 15v170c0 8.284-6.716 15-15 15H15c-8.284 0-15-6.716-15-15V21C0 12.716 6.716 6 15 6z" fill="#fff"/><path stroke="#e5e5e5" stroke-width="3" d="M0 106h200"/></g><defs><filter id="efilter0_d" x="-35" y="-24.999" width="190" height="275.999" filterUnits="userSpaceOnUse" color-interpolation-filters="sRGB"><feFlood flood-opacity="0" result="BackgroundImageFix"/><feColorMatrix in="SourceAlpha" values="0 0 0 0 0 0 0 0 0 0 0 0 0 0 0 0 0 0 127 0"/><feOffset dy="10"/><feGaussianBlur stdDeviation="17.5"/><feColorMatrix values="0 0 0 0 0 0 0 0 0 0 0 0 0 0 0 0 0 0 0.202502 0"/><feBlend in2="BackgroundImageFix" result="effect1_dropShadow"/><feBlend in="SourceGraphic" in2="effect1_dropShadow" result="shape"/></filter></defs></svg><svg fill="none" viewBox="0 0 24 37" id="Combined_Shape" xmlns="http://www.w3.org/2000/svg"><path fill-rule="evenodd" clip-rule="evenodd" d="M12 0a2 2 0 00-2 2v27.878l-7.034-7.329a1.69 1.69 0 00-2.432-.06 1.795 1.795 0 00-.06 2.493s10.27 10.883 10.3 10.913c.709.695 1.834.67 2.512-.058l10.237-10.855a1.795 1.795 0 00-.055-2.493 1.69 1.69 0 00-2.431.056L14 29.879V2a2 2 0 00-2-2z" fill="#000"/></svg><svg fill="none" viewBox="0 0 120 206" id="Combined_Shape_(1)" xmlns="http://www.w3.org/2000/svg"><g filter="url(#gfilter0_d)"><path fill-rule="evenodd" clip-rule="evenodd" d="M15 6h37.962L58.227.733C58.718.244 59.358 0 60 .001a2.492 2.492 0 011.772.732L67.039 6H105c8.284 0 15 6.716 15 15v170c0 8.284-6.716 15-15 15H15c-8.284 0-15-6.716-15-15V21C0 12.716 6.716 6 15 6z" fill="#fff"/></g><defs><filter id="gfilter0_d" x="-35" y="-24.999" width="190" height="275.999" filterUnits="userSpaceOnUse" color-interpolation-filters="sRGB"><feFlood flood-opacity="0" result="BackgroundImageFix"/><feColorMatrix in="SourceAlpha" values="0 0 0 0 0 0 0 0 0 0 0 0 0 0 0 0 0 0 127 0"/><feOffset dy="10"/><feGaussianBlur stdDeviation="17.5"/><feColorMatrix values="0 0 0 0 0 0 0 0 0 0 0 0 0 0 0 0 0 0 0.202502 0"/><feBlend in2="BackgroundImageFix" result="effect1_dropShadow"/><feBlend in="SourceGraphic" in2="effect1_dropShadow" result="shape"/></filter></defs></svg><svg fill="none" viewBox="0 0 36 36" id="Facebook" xmlns="http://www.w3.org/2000/svg"><path fill-rule="evenodd" clip-rule="evenodd" d="M36 18.12C36 8.118 27.954 0 18.016 0h-.017C8.061 0 0 8.117 0 18.12 0 27.166 6.593 34.64 15.2 36V23.355h-4.601v-5.234h4.6l.004-3.993c0-4.54 2.672-7.06 6.783-7.06 1.97 0 4.014.382 4.014.382v4.43h-2.254c-2.236 0-2.951 1.41-2.951 2.842l.005 3.399h5l-.8 5.234h-4.2V36C29.407 34.64 36 27.165 36 18.12" fill="#fff"/></svg><svg fill="none" viewBox="0 0 36 36" id="Faseook_dark" xmlns="http://www.w3.org/2000/svg"><path fill-rule="evenodd" clip-rule="evenodd" d="M36 18.12C36 8.118 27.954 0 18.016 0h-.017C8.061 0 0 8.117 0 18.12 0 27.166 6.593 34.64 15.2 36V23.355h-4.601v-5.234h4.6l.004-3.993c0-4.54 2.672-7.06 6.783-7.06 1.97 0 4.014.382 4.014.382v4.43h-2.254c-2.236 0-2.951 1.41-2.951 2.842l.005 3.399h5l-.8 5.234h-4.2V36C29.407 34.64 36 27.165 36 18.12" fill="#000"/></svg><svg fill="none" viewBox="0 0 36 36" id="Instagram" xmlns="http://www.w3.org/2000/svg"><path fill-rule="evenodd" clip-rule="evenodd" d="M10.58.109C12.5.019 13.113 0 18 0c4.887 0 5.5.02 7.42.109 1.916.087 3.225.391 4.37.836a8.83 8.83 0 013.189 2.076c1 1 1.615 2.005 2.076 3.188.445 1.144.75 2.453.836 4.37.087 1.92.109 2.532.109 7.42 0 4.89-.022 5.503-.109 7.423-.087 1.916-.391 3.225-.836 4.37a8.84 8.84 0 01-2.076 3.187c-1 1-2.005 1.617-3.19 2.076-1.144.445-2.453.75-4.369.836-1.92.09-2.533.109-7.42.109-4.887 0-5.5-.02-7.42-.109-1.916-.087-3.225-.391-4.37-.836a8.806 8.806 0 01-3.189-2.076A8.84 8.84 0 01.945 29.79C.5 28.647.195 27.338.11 25.421.022 23.502 0 22.89 0 18c0-4.888.022-5.5.109-7.42.087-1.917.391-3.226.836-4.37A8.84 8.84 0 013.021 3.02c1-1 2.005-1.615 3.19-2.076C7.354.5 8.663.195 10.58.11zm14.694 3.239c-1.898-.087-2.468-.105-7.274-.105s-5.376.018-7.274.105c-1.754.08-2.707.373-3.341.62a5.57 5.57 0 00-2.07 1.347 5.588 5.588 0 00-1.347 2.068c-.245.635-.54 1.588-.619 3.344-.087 1.898-.104 2.467-.104 7.272 0 4.807.017 5.376.104 7.274.08 1.756.374 2.71.62 3.344.325.838.717 1.44 1.346 2.068.63.63 1.23 1.02 2.07 1.347.634.247 1.587.54 3.341.62 1.898.087 2.467.105 7.274.105 4.806 0 5.376-.017 7.274-.104 1.754-.082 2.707-.374 3.341-.621a5.569 5.569 0 002.07-1.347 5.588 5.588 0 001.347-2.068c.245-.635.54-1.588.619-3.344.087-1.898.104-2.467.104-7.274 0-4.805-.017-5.374-.104-7.272-.08-1.756-.374-2.71-.62-3.344a5.59 5.59 0 00-1.346-2.068 5.57 5.57 0 00-2.07-1.347c-.634-.247-1.587-.54-3.341-.62zM18 24a6 6 0 11.002-12A6 6 0 0118 24z" fill="#fff"/></svg><svg fill="none" viewBox="0 0 36 36" id="Instagran_dark" xmlns="http://www.w3.org/2000/svg"><path fill-rule="evenodd" clip-rule="evenodd" d="M10.58.109C12.5.019 13.113 0 18 0c4.887 0 5.5.02 7.42.109 1.916.087 3.225.391 4.37.836a8.83 8.83 0 013.189 2.076c1 1 1.615 2.005 2.076 3.188.445 1.144.75 2.453.836 4.37.087 1.92.109 2.532.109 7.42 0 4.89-.022 5.503-.109 7.423-.087 1.916-.391 3.225-.836 4.37a8.84 8.84 0 01-2.076 3.187c-1 1-2.005 1.617-3.19 2.076-1.144.445-2.453.75-4.369.836-1.92.09-2.533.109-7.42.109-4.887 0-5.5-.02-7.42-.109-1.916-.087-3.225-.391-4.37-.836a8.806 8.806 0 01-3.189-2.076A8.84 8.84 0 01.945 29.79C.5 28.647.195 27.338.11 25.421.022 23.502 0 22.89 0 18c0-4.888.022-5.5.109-7.42.087-1.917.391-3.226.836-4.37A8.84 8.84 0 013.021 3.02c1-1 2.005-1.615 3.19-2.076C7.354.5 8.663.195 10.58.11zm14.694 3.239c-1.898-.087-2.468-.105-7.274-.105s-5.376.018-7.274.105c-1.754.08-2.707.373-3.341.62a5.57 5.57 0 00-2.07 1.347 5.588 5.588 0 00-1.347 2.068c-.245.635-.54 1.588-.619 3.344-.087 1.898-.104 2.467-.104 7.272 0 4.807.017 5.376.104 7.274.08 1.756.374 2.71.62 3.344.325.838.717 1.44 1.346 2.068.63.63 1.23 1.02 2.07 1.347.634.247 1.587.54 3.341.62 1.898.087 2.467.105 7.274.105 4.806 0 5.376-.017 7.274-.104 1.754-.082 2.707-.374 3.341-.621a5.569 5.569 0 002.07-1.347 5.588 5.588 0 001.347-2.068c.245-.635.54-1.588.619-3.344.087-1.898.104-2.467.104-7.274 0-4.805-.017-5.374-.104-7.272-.08-1.756-.374-2.71-.62-3.344a5.59 5.59 0 00-1.346-2.068 5.57 5.57 0 00-2.07-1.347c-.634-.247-1.587-.54-3.341-.62zM18 24a6 6 0 11.002-12A6 6 0 0118 24z" fill="#000"/></svg><svg fill="none" viewBox="0 0 1366 1366" id="Shape1" xmlns="http://www.w3.org/2000/svg"><path opacity=".2" fill-rule="evenodd" clip-rule="evenodd" d="M.475 682.9C.475 305.999 305.999.475 682.9.475 1059.8.475 1365.32 306 1365.32 682.9c0 376.9-305.52 682.42-682.42 682.42C305.999 1365.32.475 1059.8.475 682.9zM947.78 55.878C863.869 20.493 774.698 2.498 682.9 2.498c-91.799 0-180.969 17.995-264.882 53.38-81.083 34.172-153.875 83.306-216.354 145.786-62.48 62.48-111.615 135.272-145.787 216.354C20.492 501.931 2.497 591.101 2.497 682.9s17.995 180.969 53.38 264.882c34.172 81.078 83.307 153.878 145.787 216.358 62.479 62.48 135.271 111.61 216.354 145.78 83.913 35.39 173.083 53.38 264.882 53.38 91.798 0 180.969-17.99 264.881-53.38 81.079-34.17 153.879-83.3 216.359-145.78 62.48-62.48 111.61-135.28 145.78-216.358 35.39-83.913 53.38-173.083 53.38-264.882s-17.99-180.969-53.38-264.882c-34.17-81.082-83.3-153.874-145.78-216.354-62.48-62.48-135.28-111.614-216.359-145.786z" fill="#FCB047"/></svg><svg fill="none" viewBox="0 0 1820 1820" id="Shape2" xmlns="http://www.w3.org/2000/svg"><path opacity=".1" fill-rule="evenodd" clip-rule="evenodd" d="M0 909.9C0 407.433 407.433 0 909.9 0c502.47 0 909.9 407.433 909.9 909.9 0 502.47-407.43 909.9-909.9 909.9C407.433 1819.8 0 1412.37 0 909.9zM1263.35 73.399C1151.33 26.084 1032.43 2.022 909.9 2.022c-122.533 0-241.427 24.062-353.446 71.377-107.974 45.697-205.233 111.21-288.539 194.516-83.306 83.306-148.819 180.362-194.516 288.539C26.084 668.473 2.022 787.367 2.022 909.9c0 122.53 24.062 241.43 71.377 353.45 45.697 107.97 111.21 205.23 194.516 288.53 83.306 83.31 180.362 148.82 288.539 194.52 112.019 47.32 230.913 71.38 353.446 71.38 122.53 0 241.43-24.06 353.45-71.38 107.97-45.7 205.23-111.21 288.53-194.52 83.31-83.3 148.82-180.36 194.52-288.53 47.32-112.02 71.38-230.92 71.38-353.45 0-122.533-24.06-241.427-71.38-353.446-45.7-107.974-111.21-205.233-194.52-288.539-83.3-83.306-180.36-148.819-288.53-194.516z" fill="#FCB047"/></svg><svg fill="none" viewBox="0 0 16 24" id="Suport_link_arr" xmlns="http://www.w3.org/2000/svg"><path fill-rule="evenodd" clip-rule="evenodd" d="M1.485 4.25A2.457 2.457 0 114.96.776l9.003 9.004A2.459 2.459 0 0115.234 12a2.45 2.45 0 01-1.27 2.222L4.96 23.224a2.457 2.457 0 01-3.475-3.476L9.235 12l-7.75-7.75z" fill="#000"/></svg><svg fill="none" viewBox="0 0 1820 1820" id="main_bg" xmlns="http://www.w3.org/2000/svg"><path opacity=".1" fill-rule="evenodd" clip-rule="evenodd" d="M0 909.9C0 407.433 407.433 0 909.9 0c502.47 0 909.9 407.433 909.9 909.9 0 502.47-407.43 909.9-909.9 909.9C407.433 1819.8 0 1412.37 0 909.9zM1263.35 73.399C1151.33 26.084 1032.43 2.022 909.9 2.022c-122.533 0-241.427 24.062-353.446 71.377-107.974 45.697-205.233 111.21-288.539 194.516-83.306 83.306-148.819 180.362-194.516 288.539C26.084 668.473 2.022 787.367 2.022 909.9c0 122.53 24.062 241.43 71.377 353.45 45.697 107.97 111.21 205.23 194.516 288.53 83.306 83.31 180.362 148.82 288.539 194.52 112.019 47.32 230.913 71.38 353.446 71.38 122.53 0 241.43-24.06 353.45-71.38 107.97-45.7 205.23-111.21 288.53-194.52 83.31-83.3 148.82-180.36 194.52-288.53 47.32-112.02 71.38-230.92 71.38-353.45 0-122.533-24.06-241.427-71.38-353.446-45.7-107.974-111.21-205.233-194.52-288.539-83.3-83.306-180.36-148.819-288.53-194.516z" fill="#FCB047"/><path opacity=".2" fill-rule="evenodd" clip-rule="evenodd" d="M227.475 909.9c0-376.901 305.524-682.425 682.425-682.425 376.9 0 682.42 305.524 682.42 682.425 0 376.9-305.52 682.42-682.42 682.42-376.901 0-682.425-305.52-682.425-682.42zm947.305-627.022c-83.91-35.385-173.08-53.381-264.88-53.381-91.799 0-180.969 17.996-264.882 53.381-81.083 34.172-153.875 83.306-216.354 145.786-62.48 62.48-111.615 135.272-145.787 216.354-35.385 83.913-53.38 173.083-53.38 264.882 0 91.8 17.995 180.97 53.38 264.88 34.172 81.08 83.307 153.88 145.787 216.36 62.479 62.48 135.271 111.61 216.354 145.78 83.913 35.39 173.083 53.38 264.882 53.38 91.8 0 180.97-17.99 264.88-53.38 81.08-34.17 153.88-83.3 216.36-145.78 62.48-62.48 111.61-135.28 145.78-216.36 35.39-83.91 53.38-173.08 53.38-264.88 0-91.799-17.99-180.969-53.38-264.882-34.17-81.082-83.3-153.874-145.78-216.354-62.48-62.48-135.28-111.614-216.36-145.786z" fill="#FCB047"/><path opacity=".4" fill-rule="evenodd" clip-rule="evenodd" d="M495.39 909.9c0-228.891 185.619-414.51 414.51-414.51 228.89 0 414.51 185.619 414.51 414.51 0 228.89-185.62 414.51-414.51 414.51-228.891 0-414.51-185.62-414.51-414.51zm575.06-380.136c-50.76-21.433-104.945-32.352-160.55-32.352-55.605 0-109.795 10.919-160.547 32.352-48.933 20.826-93.214 50.55-131.026 88.361-37.811 37.812-67.535 81.891-88.361 131.026-21.433 50.752-32.352 104.942-32.352 160.547 0 55.605 10.919 109.792 32.352 160.542 20.826 48.94 50.55 93.22 88.361 131.03 37.812 37.81 81.891 67.53 131.026 88.36 50.752 21.43 104.942 32.35 160.547 32.35 55.605 0 109.79-10.92 160.55-32.35 48.93-20.83 93.21-50.55 131.02-88.36 37.81-37.81 67.54-81.89 88.36-131.03 21.44-50.75 32.36-104.937 32.36-160.542 0-55.605-10.92-109.795-32.36-160.547-20.82-48.933-50.55-93.214-88.36-131.026-37.81-37.811-81.89-67.535-131.02-88.361z" fill="#FCB047"/><path fill-rule="evenodd" clip-rule="evenodd" d="M910 1180c149.12 0 270-120.88 270-270 0-149.117-120.88-270-270-270-149.117 0-270 120.883-270 270 0 149.12 120.883 270 270 270z" fill="url(#opaint0_linear)"/><path fill-rule="evenodd" clip-rule="evenodd" d="M910 1180c149.12 0 270-120.88 270-270 0-149.117-120.88-270-270-270-149.117 0-270 120.883-270 270 0 149.12 120.883 270 270 270z" fill="url(#opaint1_radial)"/><mask id="oa" maskUnits="userSpaceOnUse" x="640" y="640" width="540" height="540"><path fill-rule="evenodd" clip-rule="evenodd" d="M910 1180c149.12 0 270-120.88 270-270 0-149.117-120.88-270-270-270-149.117 0-270 120.883-270 270 0 149.12 120.883 270 270 270z" fill="#fff"/><path fill-rule="evenodd" clip-rule="evenodd" d="M910 1180c149.12 0 270-120.88 270-270 0-149.117-120.88-270-270-270-149.117 0-270 120.883-270 270 0 149.12 120.883 270 270 270z" stroke="#fff"/></mask><g mask="url(#oa)" fill-rule="evenodd" clip-rule="evenodd"><path d="M1052.53 1025.18a283.944 283.944 0 00-32.5-68.131c-16.13-24.395-37.267-46.511-64.144-58.891-26.865-12.581-58.867-13.58-86.42-2.548-27.094 10.626-48.941 31.447-65.61 54.858-15.711 22.291-27.808 47.077-36.466 72.932-2.145 5.88-2.145 12.62.728 18.26 3.722 7.93 12.448 13.1 21.2 12.62 8.914-.33 17.343-6.46 20.149-14.97 7.133-21.67 17.005-42.547 30.019-61.345 10.628-15.13 23.656-29.236 40.311-37.759 15.091-7.875 33.311-9.453 49.521-4.248 16.534 5.354 30.33 16.897 41.376 30.032 15.778 18.839 27.268 40.93 35.926 63.84 2.28 5.61 3.22 12 7.4 16.65 5.44 6.42 14.65 9.32 22.77 7.07 12.02-2.83 19.76-16.65 15.74-28.37" fill="url(#opaint2_linear)"/><path d="M1031.12 766.609c-12.42 0-22.48 10.064-22.48 22.478v242.943c0 12.42 10.06 22.48 22.48 22.48 12.41 0 22.48-10.06 22.48-22.48V789.087c0-12.414-10.07-22.478-22.48-22.478" fill="url(#opaint3_linear)"/><path d="M788.355 766.609c-12.414 0-22.478 10.064-22.478 22.478v242.943c0 12.42 10.064 22.48 22.478 22.48 12.414 0 22.478-10.06 22.478-22.48V789.087c0-12.414-10.064-22.478-22.478-22.478" fill="url(#opaint4_linear)"/><path d="M1051.36 779.281c-3.73-7.929-12.45-13.108-21.2-12.622-8.92.324-17.35 6.459-20.15 14.968-7.14 21.672-17.009 42.548-30.023 61.346-10.627 15.13-23.655 29.236-40.31 37.759-15.091 7.875-33.311 9.453-49.521 4.248-16.535-5.354-30.331-16.897-41.376-30.032-15.779-18.84-27.269-40.928-35.927-63.84-2.279-5.61-3.224-12.002-7.404-16.654-5.435-6.42-14.646-9.319-22.765-7.067-12.016 2.832-19.757 16.654-15.738 28.373a283.63 283.63 0 0032.501 68.129c16.13 24.395 37.263 46.511 64.141 58.89 26.864 12.582 58.867 13.58 86.419 2.549 27.094-10.626 48.942-31.448 65.613-54.858 15.71-22.292 27.81-47.078 36.46-72.929 2.15-5.88 2.15-12.623-.72-18.26" fill="#fff"/></g><defs><linearGradient id="opaint0_linear" x1="1180" y1="1180" x2="1180" y2="640.003" gradientUnits="userSpaceOnUse"><stop stop-color="#FCB047"/><stop offset="1" stop-color="#FAD200"/></linearGradient><linearGradient id="opaint2_linear" x1="1053.59" y1="1054.31" x2="1053.59" y2="887.988" gradientUnits="userSpaceOnUse"><stop stop-color="#FAD200"/><stop offset="1" stop-color="#fff" stop-opacity=".01"/></linearGradient><linearGradient id="opaint3_linear" x1="1053.59" y1="1054.51" x2="1053.59" y2="766.611" gradientUnits="userSpaceOnUse"><stop stop-color="#fff"/><stop offset="1" stop-color="#FAD200"/></linearGradient><linearGradient id="opaint4_linear" x1="810.831" y1="1054.51" x2="810.831" y2="766.611" gradientUnits="userSpaceOnUse"><stop stop-color="#fff"/><stop offset="1" stop-color="#FAD200"/></linearGradient><radialGradient id="opaint1_radial" cx="0" cy="0" r="1" gradientUnits="userSpaceOnUse" gradientTransform="matrix(342.16787 124.56394 -96.86976 266.09402 1079.62 654.051)"><stop stop-color="#fff" stop-opacity=".559"/><stop offset="1" stop-color="#FAD200" stop-opacity=".01"/></radialGradient></defs></svg><svg fill="none" viewBox="0 0 1820 1820" id="mainbg" xmlns="http://www.w3.org/2000/svg"><path opacity=".1" fill-rule="evenodd" clip-rule="evenodd" d="M0 909.9C0 407.433 407.433 0 909.9 0c502.47 0 909.9 407.433 909.9 909.9 0 502.47-407.43 909.9-909.9 909.9C407.433 1819.8 0 1412.37 0 909.9zM1263.35 73.399C1151.33 26.084 1032.43 2.022 909.9 2.022c-122.533 0-241.427 24.062-353.446 71.377-107.974 45.697-205.233 111.21-288.539 194.516-83.306 83.306-148.819 180.362-194.516 288.539C26.084 668.473 2.022 787.367 2.022 909.9c0 122.53 24.062 241.43 71.377 353.45 45.697 107.97 111.21 205.23 194.516 288.53 83.306 83.31 180.362 148.82 288.539 194.52 112.019 47.32 230.913 71.38 353.446 71.38 122.53 0 241.43-24.06 353.45-71.38 107.97-45.7 205.23-111.21 288.53-194.52 83.31-83.3 148.82-180.36 194.52-288.53 47.32-112.02 71.38-230.92 71.38-353.45 0-122.533-24.06-241.427-71.38-353.446-45.7-107.974-111.21-205.233-194.52-288.539-83.3-83.306-180.36-148.819-288.53-194.516z" fill="#FCB047"/><path opacity=".2" fill-rule="evenodd" clip-rule="evenodd" d="M227.475 909.9c0-376.901 305.524-682.425 682.425-682.425 376.9 0 682.42 305.524 682.42 682.425 0 376.9-305.52 682.42-682.42 682.42-376.901 0-682.425-305.52-682.425-682.42zm947.305-627.022c-83.91-35.385-173.08-53.381-264.88-53.381-91.799 0-180.969 17.996-264.882 53.381-81.083 34.172-153.875 83.306-216.354 145.786-62.48 62.48-111.615 135.272-145.787 216.354-35.385 83.913-53.38 173.083-53.38 264.882 0 91.8 17.995 180.97 53.38 264.88 34.172 81.08 83.307 153.88 145.787 216.36 62.479 62.48 135.271 111.61 216.354 145.78 83.913 35.39 173.083 53.38 264.882 53.38 91.8 0 180.97-17.99 264.88-53.38 81.08-34.17 153.88-83.3 216.36-145.78 62.48-62.48 111.61-135.28 145.78-216.36 35.39-83.91 53.38-173.08 53.38-264.88 0-91.799-17.99-180.969-53.38-264.882-34.17-81.082-83.3-153.874-145.78-216.354-62.48-62.48-135.28-111.614-216.36-145.786z" fill="#FCB047"/><path opacity=".4" fill-rule="evenodd" clip-rule="evenodd" d="M495.39 909.9c0-228.891 185.619-414.51 414.51-414.51 228.89 0 414.51 185.619 414.51 414.51 0 228.89-185.62 414.51-414.51 414.51-228.891 0-414.51-185.62-414.51-414.51zm575.06-380.136c-50.76-21.433-104.945-32.352-160.55-32.352-55.605 0-109.795 10.919-160.547 32.352-48.933 20.826-93.214 50.55-131.026 88.361-37.811 37.812-67.535 81.891-88.361 131.026-21.433 50.752-32.352 104.942-32.352 160.547 0 55.605 10.919 109.792 32.352 160.542 20.826 48.94 50.55 93.22 88.361 131.03 37.812 37.81 81.891 67.53 131.026 88.36 50.752 21.43 104.942 32.35 160.547 32.35 55.605 0 109.79-10.92 160.55-32.35 48.93-20.83 93.21-50.55 131.02-88.36 37.81-37.81 67.54-81.89 88.36-131.03 21.44-50.75 32.36-104.937 32.36-160.542 0-55.605-10.92-109.795-32.36-160.547-20.82-48.933-50.55-93.214-88.36-131.026-37.81-37.811-81.89-67.535-131.02-88.361z" fill="#FCB047"/><path fill-rule="evenodd" clip-rule="evenodd" d="M910 1180c149.12 0 270-120.88 270-270 0-149.117-120.88-270-270-270-149.117 0-270 120.883-270 270 0 149.12 120.883 270 270 270z" fill="url(#ppaint0_linear)"/><path fill-rule="evenodd" clip-rule="evenodd" d="M910 1180c149.12 0 270-120.88 270-270 0-149.117-120.88-270-270-270-149.117 0-270 120.883-270 270 0 149.12 120.883 270 270 270z" fill="url(#ppaint1_radial)"/><mask id="pa" maskUnits="userSpaceOnUse" x="640" y="640" width="540" height="540"><path fill-rule="evenodd" clip-rule="evenodd" d="M910 1180c149.12 0 270-120.88 270-270 0-149.117-120.88-270-270-270-149.117 0-270 120.883-270 270 0 149.12 120.883 270 270 270z" fill="#fff"/><path fill-rule="evenodd" clip-rule="evenodd" d="M910 1180c149.12 0 270-120.88 270-270 0-149.117-120.88-270-270-270-149.117 0-270 120.883-270 270 0 149.12 120.883 270 270 270z" stroke="#fff"/></mask><g mask="url(#pa)" fill-rule="evenodd" clip-rule="evenodd"><path d="M1052.53 1025.18a283.944 283.944 0 00-32.5-68.131c-16.13-24.395-37.267-46.511-64.144-58.891-26.865-12.581-58.867-13.58-86.42-2.548-27.094 10.626-48.941 31.447-65.61 54.858-15.711 22.291-27.808 47.077-36.466 72.932-2.145 5.88-2.145 12.62.728 18.26 3.722 7.93 12.448 13.1 21.2 12.62 8.914-.33 17.343-6.46 20.149-14.97 7.133-21.67 17.005-42.547 30.019-61.345 10.628-15.13 23.656-29.236 40.311-37.759 15.091-7.875 33.311-9.453 49.521-4.248 16.534 5.354 30.33 16.897 41.376 30.032 15.778 18.839 27.268 40.93 35.926 63.84 2.28 5.61 3.22 12 7.4 16.65 5.44 6.42 14.65 9.32 22.77 7.07 12.02-2.83 19.76-16.65 15.74-28.37" fill="url(#ppaint2_linear)"/><path d="M1031.12 766.609c-12.42 0-22.48 10.064-22.48 22.478v242.943c0 12.42 10.06 22.48 22.48 22.48 12.41 0 22.48-10.06 22.48-22.48V789.087c0-12.414-10.07-22.478-22.48-22.478" fill="url(#ppaint3_linear)"/><path d="M788.355 766.609c-12.414 0-22.478 10.064-22.478 22.478v242.943c0 12.42 10.064 22.48 22.478 22.48 12.414 0 22.478-10.06 22.478-22.48V789.087c0-12.414-10.064-22.478-22.478-22.478" fill="url(#ppaint4_linear)"/><path d="M1051.36 779.281c-3.73-7.929-12.45-13.108-21.2-12.622-8.92.324-17.35 6.459-20.15 14.968-7.14 21.672-17.009 42.548-30.023 61.346-10.627 15.13-23.655 29.236-40.31 37.759-15.091 7.875-33.311 9.453-49.521 4.248-16.535-5.354-30.331-16.897-41.376-30.032-15.779-18.84-27.269-40.928-35.927-63.84-2.279-5.61-3.224-12.002-7.404-16.654-5.435-6.42-14.646-9.319-22.765-7.067-12.016 2.832-19.757 16.654-15.738 28.373a283.63 283.63 0 0032.501 68.129c16.13 24.395 37.263 46.511 64.141 58.89 26.864 12.582 58.867 13.58 86.419 2.549 27.094-10.626 48.942-31.448 65.613-54.858 15.71-22.292 27.81-47.078 36.46-72.929 2.15-5.88 2.15-12.623-.72-18.26" fill="#fff"/></g><defs><linearGradient id="ppaint0_linear" x1="1180" y1="1180" x2="1180" y2="640.003" gradientUnits="userSpaceOnUse"><stop stop-color="#FCB047"/><stop offset="1" stop-color="#FAD200"/></linearGradient><linearGradient id="ppaint2_linear" x1="1053.59" y1="1054.31" x2="1053.59" y2="887.988" gradientUnits="userSpaceOnUse"><stop stop-color="#FAD200"/><stop offset="1" stop-color="#fff" stop-opacity=".01"/></linearGradient><linearGradient id="ppaint3_linear" x1="1053.59" y1="1054.51" x2="1053.59" y2="766.611" gradientUnits="userSpaceOnUse"><stop stop-color="#fff"/><stop offset="1" stop-color="#FAD200"/></linearGradient><linearGradient id="ppaint4_linear" x1="810.831" y1="1054.51" x2="810.831" y2="766.611" gradientUnits="userSpaceOnUse"><stop stop-color="#fff"/><stop offset="1" stop-color="#FAD200"/></linearGradient><radialGradient id="ppaint1_radial" cx="0" cy="0" r="1" gradientUnits="userSpaceOnUse" gradientTransform="matrix(342.16787 124.56394 -96.86976 266.09402 1079.62 654.051)"><stop stop-color="#fff" stop-opacity=".559"/><stop offset="1" stop-color="#FAD200" stop-opacity=".01"/></radialGradient></defs></svg><svg fill="none" viewBox="0 0 200 63" id="motipio-black-logo" xmlns="http://www.w3.org/2000/svg"><path fill-rule="evenodd" clip-rule="evenodd" d="M159.745 10c-2.079 0-3.762 1.723-3.762 3.846v31.538c0 2.125 1.683 3.846 3.762 3.846 2.078 0 3.761-1.721 3.761-3.846V13.846c0-2.123-1.683-3.846-3.761-3.846m-23.326 31.538c-5.195 0-9.406-4.477-9.406-9.999 0-5.524 4.211-10 9.406-10 5.194 0 9.406 4.476 9.406 10 0 5.522-4.212 9.998-9.406 9.998m0-27.69c-9.351 0-16.931 7.92-16.931 17.692 0 .176.003.351.008.527-.003.08-.007.161-.007.242v26.844c0 2.126 1.684 3.848 3.762 3.848 2.078 0 3.762-1.722 3.762-3.848V46.251a16.342 16.342 0 009.406 2.979c9.351 0 16.931-7.921 16.931-17.691 0-9.771-7.58-17.693-16.931-17.693m46.651 27.692c-5.194 0-9.405-4.477-9.405-9.999 0-5.524 4.211-10 9.405-10 5.195 0 9.407 4.476 9.407 10 0 5.522-4.212 9.998-9.407 9.998m0-27.69c-9.35 0-16.93 7.92-16.93 17.692 0 9.77 7.58 17.69 16.93 17.69 9.352 0 16.93-7.92 16.93-17.69 0-9.771-7.578-17.693-16.93-17.693M159.745 0c-2.079 0-3.762 1.723-3.762 3.846 0 2.126 1.683 3.846 3.762 3.846 2.078 0 3.761-1.72 3.761-3.846 0-2.123-1.683-3.846-3.761-3.846m-46.652 10c-2.079 0-3.762 1.723-3.762 3.846v31.538c0 2.125 1.683 3.846 3.762 3.846 2.078 0 3.761-1.721 3.761-3.846V13.846c0-2.123-1.683-3.846-3.761-3.846m-45.372 3.846c-.057 0-.112 0-.167.002a8.047 8.047 0 00-1.017.041c-3.672.264-7.022 1.755-9.678 4.079-2.572 2.04-4.762 4.62-6.672 7.298a63.878 63.878 0 00-2.032 3.111V3.954a3.739 3.739 0 00-.375-1.786c-.2-.437-.49-.827-.838-1.15-.017-.015-.033-.032-.05-.046L46.86.943A3.697 3.697 0 0044.394 0c-1.774 0-3.26 1.255-3.657 2.944-1.183 3.575-2.797 7.015-4.902 10.123-1.778 2.588-3.958 5.002-6.746 6.46-2.525 1.349-5.575 1.619-8.289.727-2.767-.915-5.077-2.891-6.925-5.138-2.642-3.223-4.565-7.004-6.013-10.923-.212-.532-.355-1.106-.559-1.647a4.09 4.09 0 00-.23-.523 3.197 3.197 0 00-.451-.68 3.588 3.588 0 00-.859-.751A3.686 3.686 0 003.762 0C1.697 0 .022 1.7 0 3.806V45.384c0 2.125 1.683 3.846 3.762 3.846 2.078 0 3.761-1.721 3.761-3.846V19.33c2.399 3.073 5.322 5.739 8.83 7.39 4.497 2.154 9.854 2.325 14.466.436 3.926-1.575 7.195-4.458 9.813-7.803v26.03c0 1.018.387 1.944 1.018 2.632.314.35.692.64 1.124.84.07.034.141.067.215.097.446.194.921.283 1.398.277h.007c1.821 0 3.34-1.323 3.688-3.079 1.627-4.549 3.618-8.969 6.065-13.117 1.729-2.896 3.695-5.681 6.14-7.987 1.64-1.519 3.544-2.855 5.734-3.34.51-.127 1.043-.133 1.57-.168h.13c5.193 0 9.405 4.476 9.405 10 0 5.522-4.212 9.998-9.405 9.998-4.24 0-7.824-2.98-8.999-7.079-1.39 1.653-3.577 4.628-4.972 7.076 3.05 4.647 8.169 7.696 13.97 7.696 9.35 0 16.93-7.921 16.93-17.691 0-9.771-7.58-17.693-16.93-17.693m36.929 24.117c-1.691-.94-4.026-.254-4.942 1.484-.428.799-.883 1.727-1.79 2.032-.821.242-1.528-.452-1.95-1.092-.94-1.489-1.153-3.32-1.171-5.056V17.692h1.141c2.077 0 3.762-1.723 3.762-3.847 0-2.123-1.685-3.846-3.761-3.846h-1.142V5.544c-.027-1.108.145-2.29-.354-3.32-.74-1.698-2.775-2.63-4.503-2.048-1.573.47-2.718 2.085-2.657 3.766 0 2.018.002 4.039 0 6.058h-1.126c-2.079 0-3.764 1.723-3.764 3.846 0 2.124 1.685 3.847 3.764 3.847h1.126V35.34c.005 2.58.407 5.2 1.474 7.554.968 2.161 2.536 4.09 4.601 5.22 2.136 1.21 4.769 1.456 7.072.619 2.762-.967 4.924-3.32 6.042-6.04.667-1.754-.175-3.91-1.822-4.73M113.093 0c-2.079 0-3.762 1.723-3.762 3.846 0 2.126 1.683 3.846 3.762 3.846 2.078 0 3.761-1.72 3.761-3.846 0-2.123-1.683-3.846-3.761-3.846" fill="#000"/></svg><svg fill="none" viewBox="0 0 200 63" id="motipio-white-logo" xmlns="http://www.w3.org/2000/svg"><path fill-rule="evenodd" clip-rule="evenodd" d="M159.745 10c-2.079 0-3.762 1.723-3.762 3.846v31.538c0 2.125 1.683 3.846 3.762 3.846 2.078 0 3.761-1.721 3.761-3.846V13.846c0-2.123-1.683-3.846-3.761-3.846m-23.326 31.538c-5.195 0-9.406-4.477-9.406-9.999 0-5.524 4.211-10 9.406-10 5.194 0 9.406 4.476 9.406 10 0 5.522-4.212 9.998-9.406 9.998m0-27.69c-9.351 0-16.931 7.92-16.931 17.692 0 .176.003.351.008.527-.003.08-.007.161-.007.242v26.844c0 2.126 1.684 3.848 3.762 3.848 2.078 0 3.762-1.722 3.762-3.848V46.251a16.342 16.342 0 009.406 2.979c9.351 0 16.931-7.921 16.931-17.691 0-9.771-7.58-17.693-16.931-17.693m46.651 27.692c-5.194 0-9.405-4.477-9.405-9.999 0-5.524 4.211-10 9.405-10 5.195 0 9.407 4.476 9.407 10 0 5.522-4.212 9.998-9.407 9.998m0-27.69c-9.35 0-16.93 7.92-16.93 17.692 0 9.77 7.58 17.69 16.93 17.69 9.352 0 16.93-7.92 16.93-17.69 0-9.771-7.578-17.693-16.93-17.693M159.745 0c-2.079 0-3.762 1.723-3.762 3.846 0 2.126 1.683 3.846 3.762 3.846 2.078 0 3.761-1.72 3.761-3.846 0-2.123-1.683-3.846-3.761-3.846m-46.652 10c-2.079 0-3.762 1.723-3.762 3.846v31.538c0 2.125 1.683 3.846 3.762 3.846 2.078 0 3.761-1.721 3.761-3.846V13.846c0-2.123-1.683-3.846-3.761-3.846m-45.372 3.846c-.057 0-.112 0-.167.002a8.047 8.047 0 00-1.017.041c-3.672.264-7.022 1.755-9.678 4.079-2.572 2.04-4.762 4.62-6.672 7.298a63.878 63.878 0 00-2.032 3.111V3.954a3.739 3.739 0 00-.375-1.786c-.2-.437-.49-.827-.838-1.15-.017-.015-.033-.032-.05-.046L46.86.943A3.697 3.697 0 0044.394 0c-1.774 0-3.26 1.255-3.657 2.944-1.183 3.575-2.797 7.015-4.902 10.123-1.778 2.588-3.958 5.002-6.746 6.46-2.525 1.349-5.575 1.619-8.289.727-2.767-.915-5.077-2.891-6.925-5.138-2.642-3.223-4.565-7.004-6.013-10.923-.212-.532-.355-1.106-.559-1.647a4.09 4.09 0 00-.23-.523 3.197 3.197 0 00-.451-.68 3.588 3.588 0 00-.859-.751A3.686 3.686 0 003.762 0C1.697 0 .022 1.7 0 3.806V45.384c0 2.125 1.683 3.846 3.762 3.846 2.078 0 3.761-1.721 3.761-3.846V19.33c2.399 3.073 5.322 5.739 8.83 7.39 4.497 2.154 9.854 2.325 14.466.436 3.926-1.575 7.195-4.458 9.813-7.803v26.03c0 1.018.387 1.944 1.018 2.632.314.35.692.64 1.124.84.07.034.141.067.215.097.446.194.921.283 1.398.277h.007c1.821 0 3.34-1.323 3.688-3.079 1.627-4.549 3.618-8.969 6.065-13.117 1.729-2.896 3.695-5.681 6.14-7.987 1.64-1.519 3.544-2.855 5.734-3.34.51-.127 1.043-.133 1.57-.168h.13c5.193 0 9.405 4.476 9.405 10 0 5.522-4.212 9.998-9.405 9.998-4.24 0-7.824-2.98-8.999-7.079-1.39 1.653-3.577 4.628-4.972 7.076 3.05 4.647 8.169 7.696 13.97 7.696 9.35 0 16.93-7.921 16.93-17.691 0-9.771-7.58-17.693-16.93-17.693m36.929 24.117c-1.691-.94-4.026-.254-4.942 1.484-.428.799-.883 1.727-1.79 2.032-.821.242-1.528-.452-1.95-1.092-.94-1.489-1.153-3.32-1.171-5.056V17.692h1.141c2.077 0 3.762-1.723 3.762-3.847 0-2.123-1.685-3.846-3.761-3.846h-1.142V5.544c-.027-1.108.145-2.29-.354-3.32-.74-1.698-2.775-2.63-4.503-2.048-1.573.47-2.718 2.085-2.657 3.766 0 2.018.002 4.039 0 6.058h-1.126c-2.079 0-3.764 1.723-3.764 3.846 0 2.124 1.685 3.847 3.764 3.847h1.126V35.34c.005 2.58.407 5.2 1.474 7.554.968 2.161 2.536 4.09 4.601 5.22 2.136 1.21 4.769 1.456 7.072.619 2.762-.967 4.924-3.32 6.042-6.04.667-1.754-.175-3.91-1.822-4.73M113.093 0c-2.079 0-3.762 1.723-3.762 3.846 0 2.126 1.683 3.846 3.762 3.846 2.078 0 3.761-1.72 3.761-3.846 0-2.123-1.683-3.846-3.761-3.846" fill="#fff"/></svg></svg>