<svg width="27" height="27" viewBox="0 0 27 27" fill="none" xmlns="http://www.w3.org/2000/svg">
<path fill-rule="evenodd" clip-rule="evenodd" d="M4.26777 0.732233C3.29146 -0.244078 1.70854 -0.244078 0.732233 0.732233C-0.244078 1.70854 -0.244078 3.29146 0.732232 4.26777L9.92462 13.4602L0.732234 22.6525C-0.244077 23.6289 -0.244076 25.2118 0.732234 26.1881C1.70854 27.1644 3.29146 27.1644 4.26777 26.1881L13.4602 16.9957L22.6525 26.1881C23.6289 27.1644 25.2118 27.1644 26.1881 26.1881C27.1644 25.2118 27.1644 23.6289 26.1881 22.6525L16.9957 13.4602L26.1881 4.26777C27.1644 3.29146 27.1644 1.70854 26.1881 0.732233C25.2118 -0.244078 23.6289 -0.244078 22.6525 0.732233L13.4602 9.92462L4.26777 0.732233Z" fill="black"/>
</svg>
