<svg width="50" height="50" viewBox="0 0 50 50" fill="none" xmlns="http://www.w3.org/2000/svg">
<path fill-rule="evenodd" clip-rule="evenodd" d="M25 50C38.8071 50 50 38.8071 50 25C50 11.1929 38.8071 0 25 0C11.1929 0 0 11.1929 0 25C0 38.8071 11.1929 50 25 50Z" fill="url(#paint0_linear)"/>
<path fill-rule="evenodd" clip-rule="evenodd" d="M25 50C38.8071 50 50 38.8071 50 25C50 11.1929 38.8071 0 25 0C11.1929 0 0 11.1929 0 25C0 38.8071 11.1929 50 25 50Z" fill="url(#paint1_radial)"/>
<mask id="mask0" mask-type="alpha" maskUnits="userSpaceOnUse" x="0" y="0" width="50" height="50">
<path fill-rule="evenodd" clip-rule="evenodd" d="M25 50C38.8071 50 50 38.8071 50 25C50 11.1929 38.8071 0 25 0C11.1929 0 0 11.1929 0 25C0 38.8071 11.1929 50 25 50Z" fill="white"/>
<path fill-rule="evenodd" clip-rule="evenodd" d="M25 50C38.8071 50 50 38.8071 50 25C50 11.1929 38.8071 0 25 0C11.1929 0 0 11.1929 0 25C0 38.8071 11.1929 50 25 50Z" stroke="white"/>
</mask>
<g mask="url(#mask0)">
<path d="M13.7174 23.5614L13.7174 23.5614L13.7142 23.5654C12.6056 24.9674 12.8262 27.075 14.1026 28.3054L14.111 28.3134L14.1195 28.3213L20.4455 34.1417L20.4538 34.1493L20.4623 34.1567C21.1884 34.7953 22.1156 35.0429 22.9971 34.9064C23.7854 34.8147 24.5358 34.4237 25.0779 33.7645L37.0091 20.2581C38.2296 18.9792 37.9164 17.0424 36.6678 15.9218L36.6676 15.9215C35.4148 14.7979 33.4115 14.6068 32.1802 15.8768L32.1654 15.8921L32.1513 15.9079L22.224 27.0578L18.2639 23.3666C16.9594 22.1132 14.8943 22.0887 13.7174 23.5614Z" fill="white" stroke="url(#paint2_linear)" stroke-width="2"/>
</g>
<defs>
<linearGradient id="paint0_linear" x1="49.9999" y1="50" x2="49.9999" y2="0.00027418" gradientUnits="userSpaceOnUse">
<stop stop-color="#FCB047"/>
<stop offset="1" stop-color="#FAD200"/>
</linearGradient>
<radialGradient id="paint1_radial" cx="0" cy="0" r="1" gradientUnits="userSpaceOnUse" gradientTransform="translate(38.7423 18.86) rotate(20.0037) scale(34.8177 27.0767)">
<stop offset="0.0316339" stop-color="white" stop-opacity="0.558764"/>
<stop offset="1" stop-color="#FAD200" stop-opacity="0.01"/>
</radialGradient>
<linearGradient id="paint2_linear" x1="31.084" y1="17.4293" x2="14.5733" y2="29.8957" gradientUnits="userSpaceOnUse">
<stop stop-color="#FCB243"/>
<stop offset="1" stop-color="white" stop-opacity="0.01"/>
</linearGradient>
</defs>
</svg>
