<svg width="1820" height="1820" viewBox="0 0 1820 1820" fill="none" xmlns="http://www.w3.org/2000/svg">
<path opacity="0.1" fill-rule="evenodd" clip-rule="evenodd" d="M0 909.9C0 407.433 407.433 0 909.9 0C1412.37 0 1819.8 407.433 1819.8 909.9C1819.8 1412.37 1412.37 1819.8 909.9 1819.8C407.433 1819.8 0 1412.37 0 909.9ZM1263.35 73.3986C1151.33 26.0838 1032.43 2.022 909.9 2.022C787.367 2.022 668.473 26.0838 556.454 73.3986C448.48 119.096 351.221 184.609 267.915 267.915C184.609 351.221 119.096 448.277 73.3986 556.454C26.0838 668.473 2.022 787.367 2.022 909.9C2.022 1032.43 26.0838 1151.33 73.3986 1263.35C119.096 1371.32 184.609 1468.58 267.915 1551.88C351.221 1635.19 448.277 1700.7 556.454 1746.4C668.473 1793.72 787.367 1817.78 909.9 1817.78C1032.43 1817.78 1151.33 1793.72 1263.35 1746.4C1371.32 1700.7 1468.58 1635.19 1551.88 1551.88C1635.19 1468.58 1700.7 1371.52 1746.4 1263.35C1793.72 1151.33 1817.78 1032.43 1817.78 909.9C1817.78 787.367 1793.72 668.473 1746.4 556.454C1700.7 448.48 1635.19 351.221 1551.88 267.915C1468.58 184.609 1371.52 119.096 1263.35 73.3986Z" fill="#FCB047"/>
<path opacity="0.2" fill-rule="evenodd" clip-rule="evenodd" d="M227.475 909.9C227.475 532.999 532.999 227.475 909.9 227.475C1286.8 227.475 1592.32 532.999 1592.32 909.9C1592.32 1286.8 1286.8 1592.32 909.9 1592.32C532.999 1592.32 227.475 1286.8 227.475 909.9ZM1174.78 282.878C1090.87 247.493 1001.7 229.497 909.9 229.497C818.101 229.497 728.931 247.493 645.018 282.878C563.935 317.05 491.143 366.184 428.664 428.664C366.184 491.144 317.049 563.936 282.877 645.018C247.492 728.931 229.497 818.101 229.497 909.9C229.497 1001.7 247.492 1090.87 282.877 1174.78C317.049 1255.86 366.184 1328.66 428.664 1391.14C491.143 1453.62 563.935 1502.75 645.018 1536.92C728.931 1572.31 818.101 1590.3 909.9 1590.3C1001.7 1590.3 1090.87 1572.31 1174.78 1536.92C1255.86 1502.75 1328.66 1453.62 1391.14 1391.14C1453.62 1328.66 1502.75 1255.86 1536.92 1174.78C1572.31 1090.87 1590.3 1001.7 1590.3 909.9C1590.3 818.101 1572.31 728.931 1536.92 645.018C1502.75 563.936 1453.62 491.144 1391.14 428.664C1328.66 366.184 1255.86 317.05 1174.78 282.878Z" fill="#FCB047"/>
<path opacity="0.4" fill-rule="evenodd" clip-rule="evenodd" d="M495.39 909.9C495.39 681.009 681.009 495.39 909.9 495.39C1138.79 495.39 1324.41 681.009 1324.41 909.9C1324.41 1138.79 1138.79 1324.41 909.9 1324.41C681.009 1324.41 495.39 1138.79 495.39 909.9ZM1070.45 529.764C1019.69 508.331 965.505 497.412 909.9 497.412C854.295 497.412 800.105 508.331 749.353 529.764C700.42 550.59 656.139 580.314 618.327 618.125C580.516 655.937 550.792 700.016 529.966 749.151C508.533 799.903 497.614 854.093 497.614 909.698C497.614 965.303 508.533 1019.49 529.966 1070.24C550.792 1119.18 580.516 1163.46 618.327 1201.27C656.139 1239.08 700.218 1268.8 749.353 1289.63C800.105 1311.06 854.295 1321.98 909.9 1321.98C965.505 1321.98 1019.69 1311.06 1070.45 1289.63C1119.38 1268.8 1163.66 1239.08 1201.47 1201.27C1239.28 1163.46 1269.01 1119.38 1289.83 1070.24C1311.27 1019.49 1322.19 965.303 1322.19 909.698C1322.19 854.093 1311.27 799.903 1289.83 749.151C1269.01 700.218 1239.28 655.937 1201.47 618.125C1163.66 580.314 1119.58 550.59 1070.45 529.764Z" fill="#FCB047"/>
<path fill-rule="evenodd" clip-rule="evenodd" d="M910 1180C1059.12 1180 1180 1059.12 1180 910C1180 760.883 1059.12 640 910 640C760.883 640 640 760.883 640 910C640 1059.12 760.883 1180 910 1180Z" fill="url(#paint0_linear)"/>
<path fill-rule="evenodd" clip-rule="evenodd" d="M910 1180C1059.12 1180 1180 1059.12 1180 910C1180 760.883 1059.12 640 910 640C760.883 640 640 760.883 640 910C640 1059.12 760.883 1180 910 1180Z" fill="url(#paint1_radial)"/>
<mask id="mask0" mask-type="alpha" maskUnits="userSpaceOnUse" x="640" y="640" width="540" height="540">
<path fill-rule="evenodd" clip-rule="evenodd" d="M910 1180C1059.12 1180 1180 1059.12 1180 910C1180 760.883 1059.12 640 910 640C760.883 640 640 760.883 640 910C640 1059.12 760.883 1180 910 1180Z" fill="white"/>
<path fill-rule="evenodd" clip-rule="evenodd" d="M910 1180C1059.12 1180 1180 1059.12 1180 910C1180 760.883 1059.12 640 910 640C760.883 640 640 760.883 640 910C640 1059.12 760.883 1180 910 1180Z" stroke="white"/>
</mask>
<g mask="url(#mask0)">
<path fill-rule="evenodd" clip-rule="evenodd" d="M1052.53 1025.18C1044.8 1001.16 1033.82 978.167 1020.03 957.049C1003.9 932.654 982.763 910.538 955.886 898.158C929.021 885.577 897.019 884.578 869.466 895.61C842.372 906.236 820.525 927.057 803.856 950.468C788.145 972.759 776.048 997.545 767.39 1023.4C765.245 1029.28 765.245 1036.02 768.118 1041.66C771.84 1049.59 780.566 1054.76 789.318 1054.28C798.232 1053.95 806.661 1047.82 809.467 1039.31C816.6 1017.64 826.472 996.763 839.486 977.965C850.114 962.835 863.142 948.729 879.797 940.206C894.888 932.331 913.108 930.753 929.318 935.958C945.852 941.312 959.648 952.855 970.694 965.99C986.472 984.829 997.962 1006.92 1006.62 1029.83C1008.9 1035.44 1009.84 1041.83 1014.02 1046.48C1019.46 1052.9 1028.67 1055.8 1036.79 1053.55C1048.81 1050.72 1056.55 1036.9 1052.53 1025.18" fill="url(#paint2_linear)"/>
<path fill-rule="evenodd" clip-rule="evenodd" d="M1031.12 766.609C1018.7 766.609 1008.64 776.673 1008.64 789.087V1032.03C1008.64 1044.45 1018.7 1054.51 1031.12 1054.51C1043.53 1054.51 1053.6 1044.45 1053.6 1032.03V789.087C1053.6 776.673 1043.53 766.609 1031.12 766.609" fill="url(#paint3_linear)"/>
<path fill-rule="evenodd" clip-rule="evenodd" d="M788.355 766.609C775.941 766.609 765.877 776.673 765.877 789.087V1032.03C765.877 1044.45 775.941 1054.51 788.355 1054.51C800.769 1054.51 810.833 1044.45 810.833 1032.03V789.087C810.833 776.673 800.769 766.609 788.355 766.609" fill="url(#paint4_linear)"/>
<path fill-rule="evenodd" clip-rule="evenodd" d="M1051.36 779.281C1047.63 771.352 1038.91 766.173 1030.16 766.659C1021.24 766.983 1012.81 773.118 1010.01 781.627C1002.87 803.299 993.001 824.175 979.987 842.973C969.36 858.103 956.332 872.209 939.677 880.732C924.586 888.607 906.366 890.185 890.156 884.98C873.621 879.626 859.825 868.083 848.78 854.948C833.001 836.108 821.511 814.02 812.853 791.108C810.574 785.498 809.629 779.106 805.449 774.454C800.014 768.034 790.803 765.135 782.684 767.387C770.668 770.219 762.927 784.041 766.946 795.76C774.673 819.778 785.651 842.771 799.447 863.889C815.577 888.284 836.71 910.4 863.588 922.779C890.452 935.361 922.455 936.359 950.007 925.328C977.101 914.702 998.949 893.88 1015.62 870.47C1031.33 848.178 1043.43 823.392 1052.08 797.541C1054.23 791.661 1054.23 784.918 1051.36 779.281" fill="white"/>
</g>
<defs>
<linearGradient id="paint0_linear" x1="1180" y1="1180" x2="1180" y2="640.003" gradientUnits="userSpaceOnUse">
<stop stop-color="#FCB047"/>
<stop offset="1" stop-color="#FAD200"/>
</linearGradient>
<radialGradient id="paint1_radial" cx="0" cy="0" r="1" gradientUnits="userSpaceOnUse" gradientTransform="translate(1079.62 654.051) rotate(20.0037) scale(364.136 283.178)">
<stop stop-color="white" stop-opacity="0.558764"/>
<stop offset="1" stop-color="#FAD200" stop-opacity="0.01"/>
</radialGradient>
<linearGradient id="paint2_linear" x1="1053.59" y1="1054.31" x2="1053.59" y2="887.988" gradientUnits="userSpaceOnUse">
<stop stop-color="#FAD200"/>
<stop offset="1" stop-color="white" stop-opacity="0.01"/>
</linearGradient>
<linearGradient id="paint3_linear" x1="1053.59" y1="1054.51" x2="1053.59" y2="766.611" gradientUnits="userSpaceOnUse">
<stop stop-color="white"/>
<stop offset="1" stop-color="#FAD200"/>
</linearGradient>
<linearGradient id="paint4_linear" x1="810.831" y1="1054.51" x2="810.831" y2="766.611" gradientUnits="userSpaceOnUse">
<stop stop-color="white"/>
<stop offset="1" stop-color="#FAD200"/>
</linearGradient>
</defs>
</svg>
