<svg width="200" height="63" viewBox="0 0 200 63" fill="none" xmlns="http://www.w3.org/2000/svg">
<path fill-rule="evenodd" clip-rule="evenodd" d="M159.745 10.0002C157.666 10.0002 155.983 11.7227 155.983 13.8464V45.3837C155.983 47.509 157.666 49.2299 159.745 49.2299C161.823 49.2299 163.506 47.509 163.506 45.3837V13.8464C163.506 11.7227 161.823 10.0002 159.745 10.0002M136.419 41.5375C131.224 41.5375 127.013 37.0613 127.013 31.539C127.013 26.015 131.224 21.5388 136.419 21.5388C141.613 21.5388 145.825 26.015 145.825 31.539C145.825 37.0613 141.613 41.5375 136.419 41.5375M136.419 13.8464C127.068 13.8464 119.488 21.7676 119.488 31.539C119.488 31.7147 119.491 31.8904 119.496 32.0662C119.493 32.1457 119.489 32.227 119.489 32.3082V59.1521C119.489 61.2775 121.173 63 123.251 63C125.329 63 127.013 61.2775 127.013 59.1521V46.2507C129.703 48.1324 132.938 49.2299 136.419 49.2299C145.77 49.2299 153.35 41.3087 153.35 31.539C153.35 21.7676 145.77 13.8464 136.419 13.8464M183.07 41.5375C177.876 41.5375 173.665 37.0613 173.665 31.539C173.665 26.015 177.876 21.5388 183.07 21.5388C188.265 21.5388 192.477 26.015 192.477 31.539C192.477 37.0613 188.265 41.5375 183.07 41.5375M183.07 13.8464C173.72 13.8464 166.14 21.7676 166.14 31.539C166.14 41.3087 173.72 49.2299 183.07 49.2299C192.422 49.2299 200 41.3087 200 31.539C200 21.7676 192.422 13.8464 183.07 13.8464M159.745 0C157.666 0 155.983 1.72251 155.983 3.84621C155.983 5.97158 157.666 7.69243 159.745 7.69243C161.823 7.69243 163.506 5.97158 163.506 3.84621C163.506 1.72251 161.823 0 159.745 0M113.093 10.0002C111.014 10.0002 109.331 11.7227 109.331 13.8464V45.3837C109.331 47.509 111.014 49.2299 113.093 49.2299C115.171 49.2299 116.854 47.509 116.854 45.3837V13.8464C116.854 11.7227 115.171 10.0002 113.093 10.0002M67.7206 13.8464C67.6639 13.8464 67.6089 13.8464 67.5539 13.848C67.2172 13.8381 66.8772 13.8563 66.5372 13.8895C62.8655 14.1531 59.5155 15.6435 56.8588 17.9678C54.2871 20.0086 52.0971 22.5882 50.1871 25.2657C49.4787 26.2819 48.8037 27.3214 48.1554 28.3774V3.95397C48.1737 3.33891 48.0571 2.72219 47.7804 2.16847C47.5804 1.7308 47.2904 1.3412 46.9421 1.01792C46.9254 1.003 46.9087 0.986421 46.8921 0.971501C46.8804 0.961554 46.8704 0.951607 46.8587 0.943317C46.1987 0.356438 45.337 0 44.3937 0C42.6204 0 41.1337 1.25499 40.737 2.94434C39.5537 6.51867 37.9403 9.95871 35.8353 13.0672C34.057 15.6551 31.8769 18.0689 29.0886 19.5278C26.5636 20.8757 23.5135 21.1459 20.8002 20.254C18.0335 19.3388 15.7235 17.3627 13.8751 15.1163C11.2334 11.8934 9.31008 8.11187 7.86173 4.19271C7.65006 3.66054 7.50673 3.08692 7.30339 2.54646C7.23839 2.36575 7.16173 2.19002 7.07339 2.02258C6.95172 1.78053 6.80506 1.55175 6.62172 1.34286C6.37672 1.0461 6.08505 0.794111 5.76338 0.591853C5.18338 0.218836 4.49837 0 3.7617 0C1.69668 0 0.0216668 1.6993 0 3.80643C0 3.81803 0 3.83295 0 3.84621V45.3837C0 47.509 1.68335 49.2299 3.7617 49.2299C5.84005 49.2299 7.5234 47.509 7.5234 45.3837V19.3305C9.92175 22.4042 12.8451 25.07 16.3535 26.7212C20.8502 28.8748 26.2069 29.0456 30.8186 27.1573C34.7453 25.5823 38.0136 22.6993 40.632 19.3538V45.3837C40.632 46.4016 41.0187 47.3283 41.6503 48.0163C41.9637 48.3661 42.342 48.6563 42.7737 48.8552C42.8437 48.89 42.9154 48.9232 42.9887 48.953C43.4354 49.147 43.9104 49.2365 44.387 49.2299H44.3937C46.2154 49.2299 47.7337 47.9069 48.0821 46.1513C49.7087 41.6021 51.7004 37.1823 54.1471 33.0343C55.8755 30.1381 57.8421 27.3529 60.2872 25.0468C61.9272 23.5282 63.8305 22.192 66.0206 21.7079C66.5306 21.5802 67.0639 21.5736 67.5906 21.5388C67.6339 21.5388 67.6772 21.5388 67.7206 21.5388C72.9139 21.5388 77.1256 26.015 77.1256 31.539C77.1256 37.0613 72.9139 41.5375 67.7206 41.5375C63.4805 41.5375 59.8972 38.5566 58.7222 34.4584C57.3321 36.1113 55.1455 39.0855 53.7504 41.5341C56.8005 46.1811 61.9189 49.2299 67.7206 49.2299C77.0706 49.2299 84.6507 41.3087 84.6507 31.539C84.6507 21.7676 77.0706 13.8464 67.7206 13.8464M104.649 37.9631C102.958 37.0231 100.623 37.7095 99.7075 39.4469C99.2792 40.246 98.8242 41.1744 97.9175 41.4794C97.0958 41.7215 96.3891 41.0268 95.9675 40.3869C95.0275 38.8982 94.8141 37.0679 94.7958 35.3305V17.6926H95.9375C98.0142 17.6926 99.6992 15.9701 99.6992 13.8464C99.6992 11.7227 98.0142 10.0002 95.9375 10.0002H94.7958V5.54385C94.7691 4.43641 94.9408 3.25436 94.4425 2.22484C93.7025 0.525539 91.6674 -0.406174 89.9391 0.175732C88.3657 0.646562 87.2207 2.26131 87.2824 3.94237C87.2824 5.95997 87.2841 7.9809 87.2824 10.0002H86.1557C84.0774 10.0002 82.3924 11.7227 82.3924 13.8464C82.3924 15.9701 84.0774 17.6926 86.1557 17.6926H87.2824C87.2824 23.5746 87.2824 29.4584 87.2824 35.3404C87.2874 37.92 87.6891 40.5394 88.7557 42.8936C89.7241 45.0554 91.2924 46.9835 93.3574 48.1142C95.4925 49.3244 98.1258 49.5697 100.429 48.7325C103.191 47.766 105.353 45.4135 106.471 42.693C107.138 40.939 106.296 38.7821 104.649 37.9631M113.093 0C111.014 0 109.331 1.72251 109.331 3.84621C109.331 5.97158 111.014 7.69243 113.093 7.69243C115.171 7.69243 116.854 5.97158 116.854 3.84621C116.854 1.72251 115.171 0 113.093 0" fill="black"/>
</svg>
