<svg width="172" height="54" viewBox="0 0 172 54" fill="none" xmlns="http://www.w3.org/2000/svg">
<path fill-rule="evenodd" clip-rule="evenodd" d="M136.924 8.57156C135.143 8.57156 133.7 10.048 133.7 11.8683V38.9003C133.7 40.722 135.143 42.197 136.924 42.197C138.705 42.197 140.148 40.722 140.148 38.9003V11.8683C140.148 10.048 138.705 8.57156 136.924 8.57156ZM116.931 35.6035C112.478 35.6035 108.868 31.7668 108.868 27.0334C108.868 22.2986 112.478 18.4618 116.931 18.4618C121.382 18.4618 124.992 22.2986 124.992 27.0334C124.992 31.7668 121.382 35.6035 116.931 35.6035ZM116.931 11.8683C108.915 11.8683 102.418 18.6579 102.418 27.0334C102.418 27.184 102.421 27.3347 102.425 27.4853C102.422 27.5535 102.419 27.6231 102.419 27.6927V50.7018C102.419 52.5236 103.862 54 105.644 54C107.425 54 108.868 52.5236 108.868 50.7018V39.6435C111.174 41.2563 113.947 42.197 116.931 42.197C124.945 42.197 131.443 35.4074 131.443 27.0334C131.443 18.6579 124.945 11.8683 116.931 11.8683ZM156.917 35.6035C152.466 35.6035 148.856 31.7668 148.856 27.0334C148.856 22.2986 152.466 18.4618 156.917 18.4618C161.37 18.4618 164.98 22.2986 164.98 27.0334C164.98 31.7668 161.37 35.6035 156.917 35.6035ZM156.917 11.8683C148.903 11.8683 142.405 18.6579 142.405 27.0334C142.405 35.4074 148.903 42.197 156.917 42.197C164.933 42.197 171.429 35.4074 171.429 27.0334C171.429 18.6579 164.933 11.8683 156.917 11.8683ZM136.924 0C135.143 0 133.7 1.47643 133.7 3.29676C133.7 5.1185 135.143 6.59351 136.924 6.59351C138.705 6.59351 140.148 5.1185 140.148 3.29676C140.148 1.47643 138.705 0 136.924 0ZM96.9365 8.57156C95.1551 8.57156 93.7122 10.048 93.7122 11.8683V38.9003C93.7122 40.722 95.1551 42.197 96.9365 42.197C98.718 42.197 100.161 40.722 100.161 38.9003V11.8683C100.161 10.048 98.718 8.57156 96.9365 8.57156ZM58.0462 11.8683C57.9976 11.8683 57.9505 11.8683 57.9033 11.8697C57.6148 11.8612 57.3233 11.8768 57.0319 11.9053C53.8847 12.1312 51.0133 13.4087 48.7361 15.401C46.5318 17.1502 44.6547 19.3613 43.0175 21.6563C42.4104 22.5274 41.8318 23.4183 41.2761 24.3235V3.38912C41.2918 2.86192 41.1918 2.33331 40.9546 1.85869C40.7832 1.48354 40.5346 1.1496 40.236 0.872503C40.2218 0.859714 40.2075 0.845504 40.1932 0.832715C40.1832 0.824189 40.1746 0.815663 40.1646 0.808558C39.5989 0.305518 38.8603 0 38.0517 0C36.5317 0 35.2574 1.07571 34.9174 2.52372C33.9031 5.58743 32.5203 8.53604 30.716 11.2004C29.1917 13.4186 27.3231 15.4876 24.9331 16.7381C22.7688 17.8934 20.1545 18.125 17.8287 17.3605C15.4573 16.5761 13.4773 14.8823 11.893 12.9568C9.62865 10.1944 7.98007 6.95303 6.73863 3.59375C6.5572 3.1376 6.43434 2.64593 6.26005 2.18268C6.20434 2.02779 6.13862 1.87716 6.06291 1.73364C5.95862 1.52617 5.83291 1.33007 5.67576 1.15102C5.46576 0.896661 5.21576 0.680666 4.94004 0.507302C4.44289 0.187574 3.85575 0 3.22431 0C1.4543 0 0.0185716 1.45654 0 3.26265C0 3.2726 0 3.28539 0 3.29676V38.9003C0 40.722 1.44287 42.197 3.22431 42.197C5.00576 42.197 6.44863 40.722 6.44863 38.9003V16.569C8.50436 19.2036 11.0101 21.4886 14.0173 22.9039C17.8716 24.7498 22.463 24.8962 26.4159 23.2777C29.7817 21.9277 32.5831 19.4565 34.8274 16.5889V38.9003C34.8274 39.7728 35.1589 40.5671 35.7003 41.1569C35.9689 41.4567 36.2932 41.7054 36.6632 41.8759C36.7232 41.9057 36.7846 41.9342 36.8475 41.9597C37.2303 42.126 37.6375 42.2027 38.046 42.197H38.0517C39.6132 42.197 40.9146 41.0631 41.2132 39.5582C42.6075 35.659 44.3147 31.8705 46.4118 28.3151C47.8933 25.8326 49.579 23.4453 51.6747 21.4687C53.0804 20.167 54.7119 19.0217 56.589 18.6068C57.0262 18.4974 57.4833 18.4917 57.9348 18.4618C57.9719 18.4618 58.0091 18.4618 58.0462 18.4618C62.4977 18.4618 66.1077 22.2986 66.1077 27.0334C66.1077 31.7668 62.4977 35.6035 58.0462 35.6035C54.4119 35.6035 51.3404 33.0485 50.3333 29.5358C49.1418 30.9526 47.2675 33.5019 46.0718 35.6007C48.6861 39.5838 53.0733 42.197 58.0462 42.197C66.0606 42.197 72.5577 35.4074 72.5577 27.0334C72.5577 18.6579 66.0606 11.8683 58.0462 11.8683ZM89.6993 32.5398C88.2493 31.7341 86.2479 32.3224 85.4636 33.8116C85.0964 34.4966 84.7064 35.2923 83.9293 35.5538C83.225 35.7613 82.6193 35.1659 82.2578 34.6174C81.4521 33.3413 81.2692 31.7725 81.2535 30.2833V15.1651H82.2321C84.0121 15.1651 85.4564 13.6886 85.4564 11.8683C85.4564 10.048 84.0121 8.57156 82.2321 8.57156H81.2535V4.75187C81.2307 3.80264 81.3778 2.78945 80.9507 1.907C80.3164 0.450462 78.5721 -0.348149 77.0906 0.150628C75.7421 0.554196 74.7606 1.93826 74.8135 3.37917C74.8135 5.10855 74.8149 6.84077 74.8135 8.57156H73.8478C72.0663 8.57156 70.622 10.048 70.622 11.8683C70.622 13.6886 72.0663 15.1651 73.8478 15.1651H74.8135C74.8135 20.2068 74.8135 25.25 74.8135 30.2918C74.8178 32.5029 75.1621 34.7481 76.0763 36.7659C76.9064 38.6189 78.2507 40.2716 80.0207 41.2407C81.8507 42.278 84.1078 42.4884 86.0821 41.7707C88.4493 40.9423 90.3022 38.9259 91.2608 36.594C91.8322 35.0905 91.1108 33.2418 89.6993 32.5398ZM96.9365 0C95.1551 0 93.7122 1.47643 93.7122 3.29676C93.7122 5.1185 95.1551 6.59351 96.9365 6.59351C98.718 6.59351 100.161 5.1185 100.161 3.29676C100.161 1.47643 98.718 0 96.9365 0Z" fill="white"/>
</svg>
