<svg width="15" height="15" viewBox="0 0 15 15" fill="none" xmlns="http://www.w3.org/2000/svg">
<path fill-rule="evenodd" clip-rule="evenodd" d="M14.8346 5.44815C14.7476 5.35665 14.6351 5.29665 14.5136 5.27715L10.042 4.56165L8.01539 0.331652C7.87289 0.0346518 7.52788 -0.0853482 7.24437 0.0646518C7.13336 0.121652 7.04336 0.216152 6.98786 0.331652L4.96129 4.56165L0.489647 5.27715C0.176137 5.32815 -0.0383698 5.63565 0.0111318 5.96415C0.0291324 6.09165 0.0861342 6.20865 0.173137 6.30015L3.38624 9.62565L2.65272 14.2937C2.60022 14.6222 2.81022 14.9327 3.12373 14.9882C3.24824 15.0092 3.37574 14.9882 3.48824 14.9267L7.50237 12.7517L11.515 14.9267C11.62 14.9837 11.7385 15.0062 11.8555 14.9927V14.9912C12.1705 14.9507 12.394 14.6507 12.355 14.3207C12.3535 14.3117 12.3535 14.3027 12.352 14.2937L11.6185 9.62565L14.8301 6.30015C15.0551 6.06615 15.0566 5.68515 14.8346 5.44815Z" fill="#9297A2"/>
</svg>
